# 3D Printer Online 4.1 refined collectible cat silhouette
v 0.164462 0.806712 -0.888506
v 0.116349 0.946913 -0.888506
v 0.000000 1.004987 -0.888506
v -0.116349 0.946913 -0.888506
v -0.164462 0.806712 -0.888506
v -0.115209 0.666510 -0.888506
v 0.000000 0.608437 -0.888506
v 0.115209 0.666510 -0.888506
v 0.224449 0.822162 -0.532346
v 0.158710 1.022449 -0.532346
v 0.000000 1.105412 -0.532346
v -0.158710 1.022449 -0.532346
v -0.224449 0.822162 -0.532346
v -0.156684 0.621874 -0.532346
v 0.000000 0.538912 -0.532346
v 0.156684 0.621874 -0.532346
v 0.210722 0.847912 -0.104954
v 0.149002 1.044193 -0.104954
v 0.000000 1.125497 -0.104954
v -0.149002 1.044193 -0.104954
v -0.210722 0.847912 -0.104954
v -0.147395 0.651630 -0.104954
v 0.000000 0.570327 -0.104954
v 0.147395 0.651630 -0.104954
v 0.198352 0.884399 0.340246
v 0.140256 1.070667 0.340246
v 0.000000 1.147821 0.340246
v -0.140256 1.070667 0.340246
v -0.198352 0.884399 0.340246
v -0.139028 0.682243 0.340246
v 0.000000 0.605089 0.340246
v 0.139028 0.682243 0.340246
v 0.153267 0.941049 0.553942
v 0.108376 1.097273 0.553942
v 0.000000 1.161984 0.553942
v -0.108376 1.097273 0.553942
v -0.153267 0.941049 0.553942
v -0.116000 0.784825 0.553942
v 0.000000 0.704227 0.553942
v 0.116000 0.784825 0.553942
v 0.143140 1.044049 0.651886
v 0.101215 1.155481 0.651886
v 0.000000 1.201639 0.651886
v -0.101215 1.155481 0.651886
v -0.143140 1.044049 0.651886
v -0.101215 0.932616 0.651886
v 0.000000 0.886459 0.651886
v 0.101215 0.932616 0.651886
v 0.170664 1.162062 0.732022
v 0.120678 1.299714 0.732022
v 0.000000 1.356732 0.732022
v -0.120678 1.299714 0.732022
v -0.170664 1.162062 0.732022
v -0.120678 1.024409 0.732022
v 0.000000 0.967392 0.732022
v 0.120678 1.024409 0.732022
v 0.194553 1.254762 0.829966
v 0.137570 1.418634 0.829966
v 0.000000 1.486512 0.829966
v -0.137570 1.418634 0.829966
v -0.194553 1.254762 0.829966
v -0.137570 1.090890 0.829966
v 0.000000 1.023012 0.829966
v 0.137570 1.090890 0.829966
v 0.168067 1.230034 1.072494
v 0.118841 1.367686 1.072494
v 0.000000 1.424704 1.072494
v -0.118841 1.367686 1.072494
v -0.168067 1.230034 1.072494
v -0.118841 1.092382 1.072494
v 0.000000 1.035364 1.072494
v 0.118841 1.092382 1.072494
v 0.095339 1.137704 1.273894
v 0.067415 1.213085 1.273894
v 0.000000 1.244309 1.273894
v -0.067415 1.213085 1.273894
v -0.095339 1.137704 1.273894
v -0.067415 1.062322 1.273894
v 0.000000 1.031099 1.273894
v 0.067415 1.062322 1.273894
v 0.000000 0.806712 -0.888506
v 0.000000 1.137704 1.273894
v -0.176773 1.323779 1.051294
v -0.030743 1.323779 1.051294
v -0.047342 1.362912 0.796894
v -0.162550 1.362912 0.796894
v -0.105379 1.697662 0.924094
v 0.030743 1.323779 1.051294
v 0.176773 1.323779 1.051294
v 0.162550 1.362912 0.796894
v 0.047342 1.362912 0.796894
v 0.105379 1.697662 0.924094
v -0.119462 0.850454 0.402535
v -0.166307 0.849993 0.371369
v -0.166307 0.847887 0.309079
v -0.119285 0.846243 0.277956
v -0.072617 0.846705 0.309122
v -0.072617 0.848810 0.371412
v -0.120095 0.597021 0.392849
v -0.152792 0.596189 0.370791
v -0.152777 0.594729 0.326667
v -0.120071 0.594102 0.304602
v -0.087377 0.594934 0.326661
v -0.087385 0.596394 0.370784
v -0.114619 0.349637 0.389642
v -0.138259 0.348836 0.373430
v -0.138247 0.347561 0.340994
v -0.114599 0.347086 0.324770
v -0.090961 0.347887 0.340981
v -0.090969 0.349162 0.373417
v -0.115187 0.153200 0.391348
v -0.133107 0.150453 0.379341
v -0.133189 0.144765 0.355374
v -0.115329 0.141823 0.343415
v -0.097397 0.144570 0.355423
v -0.097337 0.150259 0.379389
v -0.143500 0.078502 0.425046
v -0.130043 0.061282 0.403220
v -0.102609 0.061282 0.403220
v -0.088729 0.078502 0.425046
v -0.102234 0.095721 0.446871
v -0.129569 0.095721 0.446871
v -0.119462 0.848349 0.340246
v -0.116115 0.078502 0.425046
v -0.115987 0.831277 -0.318662
v -0.162073 0.832462 -0.349808
v -0.163279 0.833646 -0.412124
v -0.117720 0.833646 -0.443295
v -0.071294 0.832462 -0.412149
v -0.070768 0.831277 -0.349832
v -0.116905 0.594741 -0.341608
v -0.149137 0.595049 -0.363680
v -0.149930 0.595870 -0.407821
v -0.118151 0.596382 -0.429889
v -0.085748 0.596074 -0.407817
v -0.085295 0.595254 -0.363676
v -0.114603 0.347644 -0.358064
v -0.138249 0.347839 -0.374295
v -0.138256 0.348557 -0.406749
v -0.114614 0.349079 -0.422972
v -0.090967 0.348884 -0.406742
v -0.090963 0.348166 -0.374288
v -0.115299 0.144249 -0.371801
v -0.133171 0.145981 -0.384007
v -0.133124 0.149244 -0.408449
v -0.115217 0.150775 -0.420684
v -0.097351 0.149042 -0.408478
v -0.097385 0.145779 -0.384035
v -0.116276 0.065397 -0.399150
v -0.139928 0.071950 -0.413914
v -0.139734 0.085053 -0.443443
v -0.115953 0.091606 -0.458207
v -0.092334 0.085053 -0.443443
v -0.092462 0.071950 -0.413914
v -0.116854 0.832462 -0.380978
v -0.116115 0.078502 -0.428678
v 0.119462 0.850454 0.402535
v 0.072617 0.848810 0.371412
v 0.072617 0.846705 0.309122
v 0.119285 0.846243 0.277956
v 0.166307 0.847887 0.309079
v 0.166307 0.849993 0.371369
v 0.120095 0.597021 0.392849
v 0.087385 0.596394 0.370784
v 0.087377 0.594934 0.326661
v 0.120071 0.594102 0.304602
v 0.152777 0.594729 0.326667
v 0.152792 0.596189 0.370791
v 0.114619 0.349637 0.389642
v 0.090969 0.349162 0.373417
v 0.090961 0.347887 0.340981
v 0.114599 0.347086 0.324770
v 0.138247 0.347561 0.340994
v 0.138259 0.348836 0.373430
v 0.115187 0.153200 0.391348
v 0.097337 0.150259 0.379389
v 0.097397 0.144570 0.355423
v 0.115329 0.141823 0.343415
v 0.133189 0.144765 0.355374
v 0.133107 0.150453 0.379341
v 0.088729 0.078502 0.425046
v 0.102608 0.061282 0.403220
v 0.130043 0.061282 0.403220
v 0.143500 0.078502 0.425046
v 0.129569 0.095721 0.446871
v 0.102234 0.095721 0.446871
v 0.119462 0.848349 0.340246
v 0.116115 0.078502 0.425046
v 0.115987 0.831277 -0.318662
v 0.070768 0.831277 -0.349832
v 0.071294 0.832462 -0.412149
v 0.117720 0.833646 -0.443295
v 0.163279 0.833646 -0.412124
v 0.162073 0.832462 -0.349808
v 0.116905 0.594741 -0.341608
v 0.085295 0.595254 -0.363676
v 0.085748 0.596074 -0.407817
v 0.118151 0.596382 -0.429889
v 0.149930 0.595870 -0.407821
v 0.149137 0.595049 -0.363680
v 0.114603 0.347644 -0.358064
v 0.090963 0.348166 -0.374288
v 0.090967 0.348884 -0.406742
v 0.114614 0.349079 -0.422972
v 0.138256 0.348557 -0.406749
v 0.138249 0.347839 -0.374295
v 0.115299 0.144249 -0.371801
v 0.097385 0.145779 -0.384035
v 0.097351 0.149042 -0.408478
v 0.115217 0.150775 -0.420684
v 0.133124 0.149244 -0.408449
v 0.133171 0.145981 -0.384007
v 0.116276 0.065397 -0.399150
v 0.092462 0.071950 -0.413914
v 0.092334 0.085053 -0.443443
v 0.115953 0.091606 -0.458207
v 0.139734 0.085053 -0.443443
v 0.139928 0.071950 -0.413914
v 0.116854 0.832462 -0.380978
v 0.116115 0.078502 -0.428678
v 0.025915 0.842762 -0.597551
v -0.005801 0.789466 -0.610963
v -0.063169 0.789466 -0.599183
v -0.089027 0.842762 -0.573990
v -0.057258 0.896057 -0.560577
v 0.000160 0.896057 -0.572358
v -0.051890 0.986962 -1.001765
v -0.076186 0.951485 -1.020881
v -0.118964 0.951485 -1.013621
v -0.137446 0.986962 -0.987248
v -0.113150 1.022438 -0.968131
v -0.070372 1.022438 -0.975391
v -0.071970 1.213562 -1.182208
v -0.088287 1.191114 -1.211606
v -0.124508 1.191114 -1.214704
v -0.144414 1.213562 -1.188405
v -0.128097 1.236009 -1.159007
v -0.091876 1.236009 -1.155908
v -0.048007 1.398962 -1.324932
v -0.047893 1.383318 -1.354740
v -0.072014 1.383318 -1.374114
v -0.096249 1.398962 -1.363681
v -0.096363 1.414605 -1.333873
v -0.072242 1.414605 -1.314499
v -0.022195 1.481362 -1.308172
v -0.004874 1.468387 -1.317897
v -0.001079 1.468387 -1.343431
v -0.014605 1.481362 -1.359241
v -0.031926 1.494336 -1.349516
v -0.035721 1.494336 -1.323982
v -0.031556 0.842762 -0.585770
v -0.018400 1.481362 -1.333706
v -0.040196 1.255056 1.296154
v -0.051923 1.269382 1.296154
v -0.070898 1.263910 1.296154
v -0.070898 1.246202 1.296154
v -0.051923 1.240730 1.296154
v -0.040355 1.255683 1.283434
v -0.052129 1.270010 1.283434
v -0.071179 1.264537 1.283434
v -0.071179 1.246829 1.283434
v -0.052129 1.241357 1.283434
v 0.074139 1.255056 1.296154
v 0.062412 1.269382 1.296154
v 0.043437 1.263910 1.296154
v 0.043437 1.246202 1.296154
v 0.062412 1.240730 1.296154
v 0.074433 1.255683 1.283434
v 0.062659 1.270010 1.283434
v 0.043609 1.264537 1.283434
v 0.043609 1.246829 1.283434
v 0.062659 1.241357 1.283434
v 0.018671 1.089524 1.310994
v 0.000000 1.104588 1.310994
v -0.018671 1.089524 1.310994
v 0.000000 1.074461 1.310994
v 0.018746 1.090152 1.298274
v 0.000000 1.105215 1.298274
v -0.018746 1.090152 1.298274
v 0.000000 1.075088 1.298274
v -0.225254 0.899206 -0.528106
v -0.222594 0.860684 -0.427128
v -0.222145 0.783640 -0.427128
v -0.224223 0.745118 -0.528106
v -0.225863 0.783640 -0.629085
v -0.226320 0.860684 -0.629085
v -0.236242 0.899206 -0.528106
v -0.233452 0.860684 -0.427128
v -0.232981 0.783640 -0.427128
v -0.235161 0.745118 -0.528106
v -0.236881 0.783640 -0.629085
v -0.237360 0.860684 -0.629085
v -0.232579 0.856152 -0.528106
v -0.231371 0.839157 -0.483675
v -0.231235 0.805167 -0.483675
v -0.232180 0.788172 -0.528106
v -0.233543 0.805167 -0.572537
v -0.233680 0.839157 -0.572537
v -0.243567 0.856152 -0.528106
v -0.242302 0.839157 -0.483675
v -0.242159 0.805167 -0.483675
v -0.243149 0.788172 -0.528106
v -0.244576 0.805167 -0.572537
v -0.244720 0.839157 -0.572537
v -0.219111 1.019304 -0.294906
v -0.216573 0.982533 -0.198517
v -0.216573 0.908991 -0.198517
v -0.219111 0.872220 -0.294906
v -0.221650 0.908991 -0.391295
v -0.221650 0.982533 -0.391295
v -0.229800 1.019304 -0.294906
v -0.227137 0.982533 -0.198517
v -0.227137 0.908991 -0.198517
v -0.229800 0.872220 -0.294906
v -0.232463 0.908991 -0.391295
v -0.232463 0.982533 -0.391295
v -0.217597 0.888700 -0.040506
v -0.219894 0.855431 0.046702
v -0.219527 0.788893 0.046702
v -0.216753 0.755624 -0.040506
v -0.214941 0.788893 -0.127715
v -0.215300 0.855431 -0.127715
v -0.228212 0.888700 -0.040506
v -0.230621 0.855431 0.046702
v -0.230236 0.788893 0.046702
v -0.227327 0.755624 -0.040506
v -0.225426 0.788893 -0.127715
v -0.225803 0.855431 -0.127715
v -0.224674 0.851517 -0.040506
v -0.225717 0.836839 -0.002134
v -0.225619 0.807484 -0.002134
v -0.224357 0.792807 -0.040506
v -0.223533 0.807484 -0.078878
v -0.223630 0.836839 -0.078878
v -0.235288 0.851517 -0.040506
v -0.236381 0.836839 -0.002134
v -0.236279 0.807484 -0.002134
v -0.234957 0.792807 -0.040506
v -0.234094 0.807484 -0.078878
v -0.234195 0.836839 -0.078878
v -0.224298 1.041989 0.213894
v -0.226320 1.006969 0.305693
v -0.226320 0.936929 0.305693
v -0.224298 0.901909 0.213894
v -0.221880 0.921042 0.122094
v -0.221880 0.991082 0.122094
v -0.235240 1.041989 0.213894
v -0.237360 1.006969 0.305693
v -0.237360 0.936929 0.305693
v -0.235240 0.901909 0.213894
v -0.232704 0.921042 0.122094
v -0.232704 0.991082 0.122094
v -0.226320 0.921685 0.447094
v -0.210645 0.890167 0.529712
v -0.226278 0.827131 0.529712
v -0.225804 0.795613 0.447094
v -0.226278 0.827131 0.364475
v -0.226320 0.890167 0.364475
v -0.237360 0.921685 0.447094
v -0.220920 0.890167 0.529712
v -0.237316 0.827131 0.529712
v -0.236819 0.795613 0.447094
v -0.237316 0.827131 0.364475
v -0.237360 0.890167 0.364475
v -0.233680 0.886459 0.447094
v -0.233680 0.872554 0.483446
v -0.233680 0.844744 0.483446
v -0.233680 0.830839 0.447094
v -0.233680 0.844744 0.410741
v -0.233680 0.872554 0.410741
v -0.244720 0.886459 0.447094
v -0.244720 0.872554 0.483446
v -0.244720 0.844744 0.483446
v -0.244720 0.830839 0.447094
v -0.244720 0.844744 0.410741
v -0.244720 0.872554 0.410741
v -0.221903 1.108296 -0.400906
v -0.219848 1.078529 -0.322878
v -0.219848 1.018995 -0.322878
v -0.221903 0.989228 -0.400906
v -0.223959 1.018995 -0.478935
v -0.223959 1.078529 -0.478935
v -0.232728 1.108296 -0.400906
v -0.230573 1.078529 -0.322878
v -0.230573 1.018995 -0.322878
v -0.232728 0.989228 -0.400906
v -0.234884 1.018995 -0.478935
v -0.234884 1.078529 -0.478935
v -0.215922 1.146200 -0.104106
v -0.218219 1.112931 -0.016898
v -0.218219 1.046393 -0.016898
v -0.215922 1.013124 -0.104106
v -0.216383 1.046393 -0.191315
v -0.216383 1.112931 -0.191315
v -0.226455 1.146200 -0.104106
v -0.228864 1.112931 -0.016898
v -0.228864 1.046393 -0.016898
v -0.226455 1.013124 -0.104106
v -0.226938 1.046393 -0.191315
v -0.226938 1.112931 -0.191315
v -0.222944 1.109017 -0.104106
v -0.223988 1.094339 -0.065734
v -0.223988 1.064984 -0.065734
v -0.222944 1.050307 -0.104106
v -0.222092 1.064984 -0.142478
v -0.222092 1.094339 -0.142478
v -0.233477 1.109017 -0.104106
v -0.234570 1.094339 -0.065734
v -0.234570 1.064984 -0.065734
v -0.233477 1.050307 -0.104106
v -0.232584 1.064984 -0.142478
v -0.232584 1.094339 -0.142478
v -0.223461 1.118596 0.182094
v -0.225516 1.104716 0.260122
v -0.225516 1.045182 0.260122
v -0.223461 0.999528 0.182094
v -0.221405 1.029295 0.104065
v -0.221405 1.088829 0.104065
v -0.234361 1.118596 0.182094
v -0.236517 1.104716 0.260122
v -0.236517 1.045182 0.260122
v -0.234361 0.999528 0.182094
v -0.232206 1.029295 0.104065
v -0.232206 1.088829 0.104065
v -0.226320 1.098680 0.415294
v -0.226320 1.071364 0.486897
v -0.226320 1.016733 0.486897
v -0.226320 0.989418 0.415294
v -0.226320 1.016733 0.343691
v -0.226320 1.071364 0.343691
v -0.237360 1.098680 0.415294
v -0.237360 1.071364 0.486897
v -0.237360 1.016733 0.486897
v -0.237360 0.989418 0.415294
v -0.237360 1.016733 0.343691
v -0.237360 1.071364 0.343691
v -0.233680 1.068151 0.415294
v -0.233680 1.056100 0.446799
v -0.233680 1.031998 0.446799
v -0.233680 1.019947 0.415294
v -0.233680 1.031998 0.383788
v -0.233680 1.056100 0.383788
v -0.244720 1.068151 0.415294
v -0.244720 1.056100 0.446799
v -0.244720 1.031998 0.446799
v -0.244720 1.019947 0.415294
v -0.244720 1.031998 0.383788
v -0.244720 1.056100 0.383788
v 0.236242 0.899206 -0.528106
v 0.233452 0.860684 -0.427128
v 0.232981 0.783640 -0.427128
v 0.235161 0.745118 -0.528106
v 0.236881 0.783640 -0.629085
v 0.237360 0.860684 -0.629085
v 0.225254 0.899206 -0.528106
v 0.222594 0.860684 -0.427128
v 0.222145 0.783640 -0.427128
v 0.224223 0.745118 -0.528106
v 0.225863 0.783640 -0.629085
v 0.226320 0.860684 -0.629085
v 0.243567 0.856152 -0.528106
v 0.242302 0.839157 -0.483675
v 0.242159 0.805167 -0.483675
v 0.243149 0.788172 -0.528106
v 0.244576 0.805167 -0.572537
v 0.244720 0.839157 -0.572537
v 0.232579 0.856152 -0.528106
v 0.231371 0.839157 -0.483675
v 0.231235 0.805167 -0.483675
v 0.232180 0.788172 -0.528106
v 0.233543 0.805167 -0.572537
v 0.233680 0.839157 -0.572537
v 0.229800 1.019304 -0.294906
v 0.227137 0.982533 -0.198517
v 0.227137 0.908991 -0.198517
v 0.229800 0.872220 -0.294906
v 0.232463 0.908991 -0.391295
v 0.232463 0.982533 -0.391295
v 0.219111 1.019304 -0.294906
v 0.216573 0.982533 -0.198517
v 0.216573 0.908991 -0.198517
v 0.219111 0.872220 -0.294906
v 0.221650 0.908991 -0.391295
v 0.221650 0.982533 -0.391295
v 0.228212 0.888700 -0.040506
v 0.230621 0.855431 0.046702
v 0.230236 0.788893 0.046702
v 0.227327 0.755624 -0.040506
v 0.225426 0.788893 -0.127715
v 0.225803 0.855431 -0.127715
v 0.217597 0.888700 -0.040506
v 0.219894 0.855431 0.046702
v 0.219527 0.788893 0.046702
v 0.216753 0.755624 -0.040506
v 0.214941 0.788893 -0.127715
v 0.215300 0.855431 -0.127715
v 0.235288 0.851517 -0.040506
v 0.236381 0.836839 -0.002134
v 0.236279 0.807484 -0.002134
v 0.234957 0.792807 -0.040506
v 0.234094 0.807484 -0.078878
v 0.234195 0.836839 -0.078878
v 0.224674 0.851517 -0.040506
v 0.225717 0.836839 -0.002134
v 0.225619 0.807484 -0.002134
v 0.224357 0.792807 -0.040506
v 0.223533 0.807484 -0.078878
v 0.223630 0.836839 -0.078878
v 0.235240 1.041989 0.213894
v 0.237360 1.006969 0.305693
v 0.237360 0.936929 0.305693
v 0.235240 0.901909 0.213894
v 0.232704 0.921042 0.122094
v 0.232704 0.991082 0.122094
v 0.224298 1.041989 0.213894
v 0.226320 1.006969 0.305693
v 0.226320 0.936929 0.305693
v 0.224298 0.901909 0.213894
v 0.221880 0.921042 0.122094
v 0.221880 0.991082 0.122094
v 0.237360 0.921685 0.447094
v 0.220920 0.890167 0.529712
v 0.237316 0.827131 0.529712
v 0.236819 0.795613 0.447094
v 0.237316 0.827131 0.364475
v 0.237360 0.890167 0.364475
v 0.226320 0.921685 0.447094
v 0.210645 0.890167 0.529712
v 0.226278 0.827131 0.529712
v 0.225804 0.795613 0.447094
v 0.226278 0.827131 0.364475
v 0.226320 0.890167 0.364475
v 0.244720 0.886459 0.447094
v 0.244720 0.872554 0.483446
v 0.244720 0.844744 0.483446
v 0.244720 0.830839 0.447094
v 0.244720 0.844744 0.410741
v 0.244720 0.872554 0.410741
v 0.233680 0.886459 0.447094
v 0.233680 0.872554 0.483446
v 0.233680 0.844744 0.483446
v 0.233680 0.830839 0.447094
v 0.233680 0.844744 0.410741
v 0.233680 0.872554 0.410741
v 0.232728 1.108296 -0.400906
v 0.230573 1.078529 -0.322878
v 0.230573 1.018995 -0.322878
v 0.232728 0.989228 -0.400906
v 0.234884 1.018995 -0.478935
v 0.234884 1.078529 -0.478935
v 0.221903 1.108296 -0.400906
v 0.219848 1.078529 -0.322878
v 0.219848 1.018995 -0.322878
v 0.221903 0.989228 -0.400906
v 0.223959 1.018995 -0.478935
v 0.223959 1.078529 -0.478935
v 0.226455 1.146200 -0.104106
v 0.228864 1.112931 -0.016898
v 0.228864 1.046393 -0.016898
v 0.226455 1.013124 -0.104106
v 0.226938 1.046393 -0.191315
v 0.226938 1.112931 -0.191315
v 0.215922 1.146200 -0.104106
v 0.218219 1.112931 -0.016898
v 0.218219 1.046393 -0.016898
v 0.215922 1.013124 -0.104106
v 0.216383 1.046393 -0.191315
v 0.216383 1.112931 -0.191315
v 0.233477 1.109017 -0.104106
v 0.234570 1.094339 -0.065734
v 0.234570 1.064984 -0.065734
v 0.233477 1.050307 -0.104106
v 0.232584 1.064984 -0.142478
v 0.232584 1.094339 -0.142478
v 0.222944 1.109017 -0.104106
v 0.223988 1.094339 -0.065734
v 0.223988 1.064984 -0.065734
v 0.222944 1.050307 -0.104106
v 0.222092 1.064984 -0.142478
v 0.222092 1.094339 -0.142478
v 0.234361 1.118596 0.182094
v 0.236517 1.104716 0.260122
v 0.236517 1.045182 0.260122
v 0.234361 0.999528 0.182094
v 0.232206 1.029295 0.104065
v 0.232206 1.088829 0.104065
v 0.223461 1.118596 0.182094
v 0.225516 1.104716 0.260122
v 0.225516 1.045182 0.260122
v 0.223461 0.999528 0.182094
v 0.221405 1.029295 0.104065
v 0.221405 1.088829 0.104065
v 0.237360 1.098680 0.415294
v 0.237360 1.071364 0.486897
v 0.237360 1.016733 0.486897
v 0.237360 0.989418 0.415294
v 0.237360 1.016733 0.343691
v 0.237360 1.071364 0.343691
v 0.226320 1.098680 0.415294
v 0.226320 1.071364 0.486897
v 0.226320 1.016733 0.486897
v 0.226320 0.989418 0.415294
v 0.226320 1.016733 0.343691
v 0.226320 1.071364 0.343691
v 0.244720 1.068151 0.415294
v 0.244720 1.056100 0.446799
v 0.244720 1.031998 0.446799
v 0.244720 1.019947 0.415294
v 0.244720 1.031998 0.383788
v 0.244720 1.056100 0.383788
v 0.233680 1.068151 0.415294
v 0.233680 1.056100 0.446799
v 0.233680 1.031998 0.446799
v 0.233680 1.019947 0.415294
v 0.233680 1.031998 0.383788
v 0.233680 1.056100 0.383788
v 0.083121 0.930749 0.631534
v 0.041560 0.967544 0.631534
v -0.041560 0.967544 0.631534
v -0.083121 0.930749 0.631534
v -0.041560 0.893953 0.631534
v 0.041560 0.893953 0.631534
v 0.083086 0.930749 0.618814
v 0.041543 0.967544 0.618814
v -0.041543 0.967544 0.618814
v -0.083086 0.930749 0.618814
v -0.041543 0.893953 0.618814
v 0.041543 0.893953 0.618814
o cat_unified_body
g cat_unified_body
f 1 2 10
f 1 10 9
f 2 3 11
f 2 11 10
f 3 4 12
f 3 12 11
f 4 5 13
f 4 13 12
f 5 6 14
f 5 14 13
f 6 7 15
f 6 15 14
f 7 8 16
f 7 16 15
f 8 1 9
f 8 9 16
f 9 10 18
f 9 18 17
f 10 11 19
f 10 19 18
f 11 12 20
f 11 20 19
f 12 13 21
f 12 21 20
f 13 14 22
f 13 22 21
f 14 15 23
f 14 23 22
f 15 16 24
f 15 24 23
f 16 9 17
f 16 17 24
f 17 18 26
f 17 26 25
f 18 19 27
f 18 27 26
f 19 20 28
f 19 28 27
f 20 21 29
f 20 29 28
f 21 22 30
f 21 30 29
f 22 23 31
f 22 31 30
f 23 24 32
f 23 32 31
f 24 17 25
f 24 25 32
f 25 26 34
f 25 34 33
f 26 27 35
f 26 35 34
f 27 28 36
f 27 36 35
f 28 29 37
f 28 37 36
f 29 30 38
f 29 38 37
f 30 31 39
f 30 39 38
f 31 32 40
f 31 40 39
f 32 25 33
f 32 33 40
f 33 34 42
f 33 42 41
f 34 35 43
f 34 43 42
f 35 36 44
f 35 44 43
f 36 37 45
f 36 45 44
f 37 38 46
f 37 46 45
f 38 39 47
f 38 47 46
f 39 40 48
f 39 48 47
f 40 33 41
f 40 41 48
f 41 42 50
f 41 50 49
f 42 43 51
f 42 51 50
f 43 44 52
f 43 52 51
f 44 45 53
f 44 53 52
f 45 46 54
f 45 54 53
f 46 47 55
f 46 55 54
f 47 48 56
f 47 56 55
f 48 41 49
f 48 49 56
f 49 50 58
f 49 58 57
f 50 51 59
f 50 59 58
f 51 52 60
f 51 60 59
f 52 53 61
f 52 61 60
f 53 54 62
f 53 62 61
f 54 55 63
f 54 63 62
f 55 56 64
f 55 64 63
f 56 49 57
f 56 57 64
f 57 58 66
f 57 66 65
f 58 59 67
f 58 67 66
f 59 60 68
f 59 68 67
f 60 61 69
f 60 69 68
f 61 62 70
f 61 70 69
f 62 63 71
f 62 71 70
f 63 64 72
f 63 72 71
f 64 57 65
f 64 65 72
f 65 66 74
f 65 74 73
f 66 67 75
f 66 75 74
f 67 68 76
f 67 76 75
f 68 69 77
f 68 77 76
f 69 70 78
f 69 78 77
f 70 71 79
f 70 79 78
f 71 72 80
f 71 80 79
f 72 65 73
f 72 73 80
f 81 2 1
f 82 73 74
f 81 3 2
f 82 74 75
f 81 4 3
f 82 75 76
f 81 5 4
f 82 76 77
f 81 6 5
f 82 77 78
f 81 7 6
f 82 78 79
f 81 8 7
f 82 79 80
f 81 1 8
f 82 80 73
o ear_left
g ear_left
f 83 84 85
f 83 85 86
f 83 87 84
f 84 87 85
f 85 87 86
f 86 87 83
o ear_right
g ear_right
f 88 89 90
f 88 90 91
f 88 92 89
f 89 92 90
f 90 92 91
f 91 92 88
o leg_front_L
g leg_front_L
f 93 94 100
f 93 100 99
f 94 95 101
f 94 101 100
f 95 96 102
f 95 102 101
f 96 97 103
f 96 103 102
f 97 98 104
f 97 104 103
f 98 93 99
f 98 99 104
f 99 100 106
f 99 106 105
f 100 101 107
f 100 107 106
f 101 102 108
f 101 108 107
f 102 103 109
f 102 109 108
f 103 104 110
f 103 110 109
f 104 99 105
f 104 105 110
f 105 106 112
f 105 112 111
f 106 107 113
f 106 113 112
f 107 108 114
f 107 114 113
f 108 109 115
f 108 115 114
f 109 110 116
f 109 116 115
f 110 105 111
f 110 111 116
f 111 112 118
f 111 118 117
f 112 113 119
f 112 119 118
f 113 114 120
f 113 120 119
f 114 115 121
f 114 121 120
f 115 116 122
f 115 122 121
f 116 111 117
f 116 117 122
f 123 94 93
f 124 117 118
f 123 95 94
f 124 118 119
f 123 96 95
f 124 119 120
f 123 97 96
f 124 120 121
f 123 98 97
f 124 121 122
f 123 93 98
f 124 122 117
o leg_rear_L
g leg_rear_L
f 125 126 132
f 125 132 131
f 126 127 133
f 126 133 132
f 127 128 134
f 127 134 133
f 128 129 135
f 128 135 134
f 129 130 136
f 129 136 135
f 130 125 131
f 130 131 136
f 131 132 138
f 131 138 137
f 132 133 139
f 132 139 138
f 133 134 140
f 133 140 139
f 134 135 141
f 134 141 140
f 135 136 142
f 135 142 141
f 136 131 137
f 136 137 142
f 137 138 144
f 137 144 143
f 138 139 145
f 138 145 144
f 139 140 146
f 139 146 145
f 140 141 147
f 140 147 146
f 141 142 148
f 141 148 147
f 142 137 143
f 142 143 148
f 143 144 150
f 143 150 149
f 144 145 151
f 144 151 150
f 145 146 152
f 145 152 151
f 146 147 153
f 146 153 152
f 147 148 154
f 147 154 153
f 148 143 149
f 148 149 154
f 155 126 125
f 156 149 150
f 155 127 126
f 156 150 151
f 155 128 127
f 156 151 152
f 155 129 128
f 156 152 153
f 155 130 129
f 156 153 154
f 155 125 130
f 156 154 149
o leg_front_R
g leg_front_R
f 157 158 164
f 157 164 163
f 158 159 165
f 158 165 164
f 159 160 166
f 159 166 165
f 160 161 167
f 160 167 166
f 161 162 168
f 161 168 167
f 162 157 163
f 162 163 168
f 163 164 170
f 163 170 169
f 164 165 171
f 164 171 170
f 165 166 172
f 165 172 171
f 166 167 173
f 166 173 172
f 167 168 174
f 167 174 173
f 168 163 169
f 168 169 174
f 169 170 176
f 169 176 175
f 170 171 177
f 170 177 176
f 171 172 178
f 171 178 177
f 172 173 179
f 172 179 178
f 173 174 180
f 173 180 179
f 174 169 175
f 174 175 180
f 175 176 182
f 175 182 181
f 176 177 183
f 176 183 182
f 177 178 184
f 177 184 183
f 178 179 185
f 178 185 184
f 179 180 186
f 179 186 185
f 180 175 181
f 180 181 186
f 187 158 157
f 188 181 182
f 187 159 158
f 188 182 183
f 187 160 159
f 188 183 184
f 187 161 160
f 188 184 185
f 187 162 161
f 188 185 186
f 187 157 162
f 188 186 181
o leg_rear_R
g leg_rear_R
f 189 190 196
f 189 196 195
f 190 191 197
f 190 197 196
f 191 192 198
f 191 198 197
f 192 193 199
f 192 199 198
f 193 194 200
f 193 200 199
f 194 189 195
f 194 195 200
f 195 196 202
f 195 202 201
f 196 197 203
f 196 203 202
f 197 198 204
f 197 204 203
f 198 199 205
f 198 205 204
f 199 200 206
f 199 206 205
f 200 195 201
f 200 201 206
f 201 202 208
f 201 208 207
f 202 203 209
f 202 209 208
f 203 204 210
f 203 210 209
f 204 205 211
f 204 211 210
f 205 206 212
f 205 212 211
f 206 201 207
f 206 207 212
f 207 208 214
f 207 214 213
f 208 209 215
f 208 215 214
f 209 210 216
f 209 216 215
f 210 211 217
f 210 217 216
f 211 212 218
f 211 218 217
f 212 207 213
f 212 213 218
f 219 190 189
f 220 213 214
f 219 191 190
f 220 214 215
f 219 192 191
f 220 215 216
f 219 193 192
f 220 216 217
f 219 194 193
f 220 217 218
f 219 189 194
f 220 218 213
o tail
g tail
f 221 222 228
f 221 228 227
f 222 223 229
f 222 229 228
f 223 224 230
f 223 230 229
f 224 225 231
f 224 231 230
f 225 226 232
f 225 232 231
f 226 221 227
f 226 227 232
f 227 228 234
f 227 234 233
f 228 229 235
f 228 235 234
f 229 230 236
f 229 236 235
f 230 231 237
f 230 237 236
f 231 232 238
f 231 238 237
f 232 227 233
f 232 233 238
f 233 234 240
f 233 240 239
f 234 235 241
f 234 241 240
f 235 236 242
f 235 242 241
f 236 237 243
f 236 243 242
f 237 238 244
f 237 244 243
f 238 233 239
f 238 239 244
f 239 240 246
f 239 246 245
f 240 241 247
f 240 247 246
f 241 242 248
f 241 248 247
f 242 243 249
f 242 249 248
f 243 244 250
f 243 250 249
f 244 239 245
f 244 245 250
f 251 222 221
f 252 245 246
f 251 223 222
f 252 246 247
f 251 224 223
f 252 247 248
f 251 225 224
f 252 248 249
f 251 226 225
f 252 249 250
f 251 221 226
f 252 250 245
o detail_eye_left
g detail_eye_left
f 253 254 255
f 258 260 259
f 253 255 256
f 258 261 260
f 253 256 257
f 258 262 261
f 253 258 259
f 253 259 254
f 254 259 260
f 254 260 255
f 255 260 261
f 255 261 256
f 256 261 262
f 256 262 257
f 257 262 258
f 257 258 253
o detail_eye_right
g detail_eye_right
f 263 264 265
f 268 270 269
f 263 265 266
f 268 271 270
f 263 266 267
f 268 272 271
f 263 268 269
f 263 269 264
f 264 269 270
f 264 270 265
f 265 270 271
f 265 271 266
f 266 271 272
f 266 272 267
f 267 272 268
f 267 268 263
o detail_nose
g detail_nose
f 273 274 275
f 277 279 278
f 273 275 276
f 277 280 279
f 273 277 278
f 273 278 274
f 274 278 279
f 274 279 275
f 275 279 280
f 275 280 276
f 276 280 277
f 276 277 273
o mark_dark_spot_-1_0
g mark_dark_spot_-1_0
f 281 282 283
f 287 289 288
f 281 283 284
f 287 290 289
f 281 284 285
f 287 291 290
f 281 285 286
f 287 292 291
f 281 287 288
f 281 288 282
f 282 288 289
f 282 289 283
f 283 289 290
f 283 290 284
f 284 290 291
f 284 291 285
f 285 291 292
f 285 292 286
f 286 292 287
f 286 287 281
o mark_warm_spot_-1_0
g mark_warm_spot_-1_0
f 293 294 295
f 299 301 300
f 293 295 296
f 299 302 301
f 293 296 297
f 299 303 302
f 293 297 298
f 299 304 303
f 293 299 300
f 293 300 294
f 294 300 301
f 294 301 295
f 295 301 302
f 295 302 296
f 296 302 303
f 296 303 297
f 297 303 304
f 297 304 298
f 298 304 299
f 298 299 293
o mark_dark_spot_-1_1
g mark_dark_spot_-1_1
f 305 306 307
f 311 313 312
f 305 307 308
f 311 314 313
f 305 308 309
f 311 315 314
f 305 309 310
f 311 316 315
f 305 311 312
f 305 312 306
f 306 312 313
f 306 313 307
f 307 313 314
f 307 314 308
f 308 314 315
f 308 315 309
f 309 315 316
f 309 316 310
f 310 316 311
f 310 311 305
o mark_dark_spot_-1_2
g mark_dark_spot_-1_2
f 317 318 319
f 323 325 324
f 317 319 320
f 323 326 325
f 317 320 321
f 323 327 326
f 317 321 322
f 323 328 327
f 317 323 324
f 317 324 318
f 318 324 325
f 318 325 319
f 319 325 326
f 319 326 320
f 320 326 327
f 320 327 321
f 321 327 328
f 321 328 322
f 322 328 323
f 322 323 317
o mark_warm_spot_-1_2
g mark_warm_spot_-1_2
f 329 330 331
f 335 337 336
f 329 331 332
f 335 338 337
f 329 332 333
f 335 339 338
f 329 333 334
f 335 340 339
f 329 335 336
f 329 336 330
f 330 336 337
f 330 337 331
f 331 337 338
f 331 338 332
f 332 338 339
f 332 339 333
f 333 339 340
f 333 340 334
f 334 340 335
f 334 335 329
o mark_dark_spot_-1_3
g mark_dark_spot_-1_3
f 341 342 343
f 347 349 348
f 341 343 344
f 347 350 349
f 341 344 345
f 347 351 350
f 341 345 346
f 347 352 351
f 341 347 348
f 341 348 342
f 342 348 349
f 342 349 343
f 343 349 350
f 343 350 344
f 344 350 351
f 344 351 345
f 345 351 352
f 345 352 346
f 346 352 347
f 346 347 341
o mark_dark_spot_-1_4
g mark_dark_spot_-1_4
f 353 354 355
f 359 361 360
f 353 355 356
f 359 362 361
f 353 356 357
f 359 363 362
f 353 357 358
f 359 364 363
f 353 359 360
f 353 360 354
f 354 360 361
f 354 361 355
f 355 361 362
f 355 362 356
f 356 362 363
f 356 363 357
f 357 363 364
f 357 364 358
f 358 364 359
f 358 359 353
o mark_warm_spot_-1_4
g mark_warm_spot_-1_4
f 365 366 367
f 371 373 372
f 365 367 368
f 371 374 373
f 365 368 369
f 371 375 374
f 365 369 370
f 371 376 375
f 365 371 372
f 365 372 366
f 366 372 373
f 366 373 367
f 367 373 374
f 367 374 368
f 368 374 375
f 368 375 369
f 369 375 376
f 369 376 370
f 370 376 371
f 370 371 365
o mark_dark_spot_-1_5
g mark_dark_spot_-1_5
f 377 378 379
f 383 385 384
f 377 379 380
f 383 386 385
f 377 380 381
f 383 387 386
f 377 381 382
f 383 388 387
f 377 383 384
f 377 384 378
f 378 384 385
f 378 385 379
f 379 385 386
f 379 386 380
f 380 386 387
f 380 387 381
f 381 387 388
f 381 388 382
f 382 388 383
f 382 383 377
o mark_dark_spot_-1_6
g mark_dark_spot_-1_6
f 389 390 391
f 395 397 396
f 389 391 392
f 395 398 397
f 389 392 393
f 395 399 398
f 389 393 394
f 395 400 399
f 389 395 396
f 389 396 390
f 390 396 397
f 390 397 391
f 391 397 398
f 391 398 392
f 392 398 399
f 392 399 393
f 393 399 400
f 393 400 394
f 394 400 395
f 394 395 389
o mark_warm_spot_-1_6
g mark_warm_spot_-1_6
f 401 402 403
f 407 409 408
f 401 403 404
f 407 410 409
f 401 404 405
f 407 411 410
f 401 405 406
f 407 412 411
f 401 407 408
f 401 408 402
f 402 408 409
f 402 409 403
f 403 409 410
f 403 410 404
f 404 410 411
f 404 411 405
f 405 411 412
f 405 412 406
f 406 412 407
f 406 407 401
o mark_dark_spot_-1_7
g mark_dark_spot_-1_7
f 413 414 415
f 419 421 420
f 413 415 416
f 419 422 421
f 413 416 417
f 419 423 422
f 413 417 418
f 419 424 423
f 413 419 420
f 413 420 414
f 414 420 421
f 414 421 415
f 415 421 422
f 415 422 416
f 416 422 423
f 416 423 417
f 417 423 424
f 417 424 418
f 418 424 419
f 418 419 413
o mark_dark_spot_-1_8
g mark_dark_spot_-1_8
f 425 426 427
f 431 433 432
f 425 427 428
f 431 434 433
f 425 428 429
f 431 435 434
f 425 429 430
f 431 436 435
f 425 431 432
f 425 432 426
f 426 432 433
f 426 433 427
f 427 433 434
f 427 434 428
f 428 434 435
f 428 435 429
f 429 435 436
f 429 436 430
f 430 436 431
f 430 431 425
o mark_warm_spot_-1_8
g mark_warm_spot_-1_8
f 437 438 439
f 443 445 444
f 437 439 440
f 443 446 445
f 437 440 441
f 443 447 446
f 437 441 442
f 443 448 447
f 437 443 444
f 437 444 438
f 438 444 445
f 438 445 439
f 439 445 446
f 439 446 440
f 440 446 447
f 440 447 441
f 441 447 448
f 441 448 442
f 442 448 443
f 442 443 437
o mark_dark_spot_1_0
g mark_dark_spot_1_0
f 449 450 451
f 455 457 456
f 449 451 452
f 455 458 457
f 449 452 453
f 455 459 458
f 449 453 454
f 455 460 459
f 449 455 456
f 449 456 450
f 450 456 457
f 450 457 451
f 451 457 458
f 451 458 452
f 452 458 459
f 452 459 453
f 453 459 460
f 453 460 454
f 454 460 455
f 454 455 449
o mark_warm_spot_1_0
g mark_warm_spot_1_0
f 461 462 463
f 467 469 468
f 461 463 464
f 467 470 469
f 461 464 465
f 467 471 470
f 461 465 466
f 467 472 471
f 461 467 468
f 461 468 462
f 462 468 469
f 462 469 463
f 463 469 470
f 463 470 464
f 464 470 471
f 464 471 465
f 465 471 472
f 465 472 466
f 466 472 467
f 466 467 461
o mark_dark_spot_1_1
g mark_dark_spot_1_1
f 473 474 475
f 479 481 480
f 473 475 476
f 479 482 481
f 473 476 477
f 479 483 482
f 473 477 478
f 479 484 483
f 473 479 480
f 473 480 474
f 474 480 481
f 474 481 475
f 475 481 482
f 475 482 476
f 476 482 483
f 476 483 477
f 477 483 484
f 477 484 478
f 478 484 479
f 478 479 473
o mark_dark_spot_1_2
g mark_dark_spot_1_2
f 485 486 487
f 491 493 492
f 485 487 488
f 491 494 493
f 485 488 489
f 491 495 494
f 485 489 490
f 491 496 495
f 485 491 492
f 485 492 486
f 486 492 493
f 486 493 487
f 487 493 494
f 487 494 488
f 488 494 495
f 488 495 489
f 489 495 496
f 489 496 490
f 490 496 491
f 490 491 485
o mark_warm_spot_1_2
g mark_warm_spot_1_2
f 497 498 499
f 503 505 504
f 497 499 500
f 503 506 505
f 497 500 501
f 503 507 506
f 497 501 502
f 503 508 507
f 497 503 504
f 497 504 498
f 498 504 505
f 498 505 499
f 499 505 506
f 499 506 500
f 500 506 507
f 500 507 501
f 501 507 508
f 501 508 502
f 502 508 503
f 502 503 497
o mark_dark_spot_1_3
g mark_dark_spot_1_3
f 509 510 511
f 515 517 516
f 509 511 512
f 515 518 517
f 509 512 513
f 515 519 518
f 509 513 514
f 515 520 519
f 509 515 516
f 509 516 510
f 510 516 517
f 510 517 511
f 511 517 518
f 511 518 512
f 512 518 519
f 512 519 513
f 513 519 520
f 513 520 514
f 514 520 515
f 514 515 509
o mark_dark_spot_1_4
g mark_dark_spot_1_4
f 521 522 523
f 527 529 528
f 521 523 524
f 527 530 529
f 521 524 525
f 527 531 530
f 521 525 526
f 527 532 531
f 521 527 528
f 521 528 522
f 522 528 529
f 522 529 523
f 523 529 530
f 523 530 524
f 524 530 531
f 524 531 525
f 525 531 532
f 525 532 526
f 526 532 527
f 526 527 521
o mark_warm_spot_1_4
g mark_warm_spot_1_4
f 533 534 535
f 539 541 540
f 533 535 536
f 539 542 541
f 533 536 537
f 539 543 542
f 533 537 538
f 539 544 543
f 533 539 540
f 533 540 534
f 534 540 541
f 534 541 535
f 535 541 542
f 535 542 536
f 536 542 543
f 536 543 537
f 537 543 544
f 537 544 538
f 538 544 539
f 538 539 533
o mark_dark_spot_1_5
g mark_dark_spot_1_5
f 545 546 547
f 551 553 552
f 545 547 548
f 551 554 553
f 545 548 549
f 551 555 554
f 545 549 550
f 551 556 555
f 545 551 552
f 545 552 546
f 546 552 553
f 546 553 547
f 547 553 554
f 547 554 548
f 548 554 555
f 548 555 549
f 549 555 556
f 549 556 550
f 550 556 551
f 550 551 545
o mark_dark_spot_1_6
g mark_dark_spot_1_6
f 557 558 559
f 563 565 564
f 557 559 560
f 563 566 565
f 557 560 561
f 563 567 566
f 557 561 562
f 563 568 567
f 557 563 564
f 557 564 558
f 558 564 565
f 558 565 559
f 559 565 566
f 559 566 560
f 560 566 567
f 560 567 561
f 561 567 568
f 561 568 562
f 562 568 563
f 562 563 557
o mark_warm_spot_1_6
g mark_warm_spot_1_6
f 569 570 571
f 575 577 576
f 569 571 572
f 575 578 577
f 569 572 573
f 575 579 578
f 569 573 574
f 575 580 579
f 569 575 576
f 569 576 570
f 570 576 577
f 570 577 571
f 571 577 578
f 571 578 572
f 572 578 579
f 572 579 573
f 573 579 580
f 573 580 574
f 574 580 575
f 574 575 569
o mark_dark_spot_1_7
g mark_dark_spot_1_7
f 581 582 583
f 587 589 588
f 581 583 584
f 587 590 589
f 581 584 585
f 587 591 590
f 581 585 586
f 587 592 591
f 581 587 588
f 581 588 582
f 582 588 589
f 582 589 583
f 583 589 590
f 583 590 584
f 584 590 591
f 584 591 585
f 585 591 592
f 585 592 586
f 586 592 587
f 586 587 581
o mark_dark_spot_1_8
g mark_dark_spot_1_8
f 593 594 595
f 599 601 600
f 593 595 596
f 599 602 601
f 593 596 597
f 599 603 602
f 593 597 598
f 599 604 603
f 593 599 600
f 593 600 594
f 594 600 601
f 594 601 595
f 595 601 602
f 595 602 596
f 596 602 603
f 596 603 597
f 597 603 604
f 597 604 598
f 598 604 599
f 598 599 593
o mark_warm_spot_1_8
g mark_warm_spot_1_8
f 605 606 607
f 611 613 612
f 605 607 608
f 611 614 613
f 605 608 609
f 611 615 614
f 605 609 610
f 611 616 615
f 605 611 612
f 605 612 606
f 606 612 613
f 606 613 607
f 607 613 614
f 607 614 608
f 608 614 615
f 608 615 609
f 609 615 616
f 609 616 610
f 610 616 611
f 610 611 605
o mark_cream_chest
g mark_cream_chest
f 617 618 619
f 623 625 624
f 617 619 620
f 623 626 625
f 617 620 621
f 623 627 626
f 617 621 622
f 623 628 627
f 617 623 624
f 617 624 618
f 618 624 625
f 618 625 619
f 619 625 626
f 619 626 620
f 620 626 627
f 620 627 621
f 621 627 628
f 621 628 622
f 622 628 623
f 622 623 617
