# 3D Printer Online cat collectible - low poly OBJ
o body
v 0.00000 1.16560 0.00000
v 0.30565 1.08348 0.00000
v 0.21613 1.08348 0.27431
v 0.00000 1.08348 0.38794
v -0.21613 1.08348 0.27431
v -0.30565 1.08348 0.00000
v -0.21613 1.08348 -0.27431
v -0.00000 1.08348 -0.38794
v 0.21613 1.08348 -0.27431
v 0.49455 0.86848 0.00000
v 0.34970 0.86848 0.44385
v 0.00000 0.86848 0.62770
v -0.34970 0.86848 0.44385
v -0.49455 0.86848 0.00000
v -0.34970 0.86848 -0.44385
v -0.00000 0.86848 -0.62770
v 0.34970 0.86848 -0.44385
v 0.49455 0.60272 0.00000
v 0.34970 0.60272 0.44385
v 0.00000 0.60272 0.62770
v -0.34970 0.60272 0.44385
v -0.49455 0.60272 0.00000
v -0.34970 0.60272 -0.44385
v -0.00000 0.60272 -0.62770
v 0.34970 0.60272 -0.44385
v 0.30565 0.38772 0.00000
v 0.21613 0.38772 0.27431
v 0.00000 0.38772 0.38794
v -0.21613 0.38772 0.27431
v -0.30565 0.38772 0.00000
v -0.21613 0.38772 -0.27431
v -0.00000 0.38772 -0.38794
v 0.21613 0.38772 -0.27431
v 0.00000 0.30560 0.00000
f 1 2 3
f 1 3 4
f 1 4 5
f 1 5 6
f 1 6 7
f 1 7 8
f 1 8 9
f 1 9 2
f 2 10 11
f 2 11 3
f 3 11 12
f 3 12 4
f 4 12 13
f 4 13 5
f 5 13 14
f 5 14 6
f 6 14 15
f 6 15 7
f 7 15 16
f 7 16 8
f 8 16 17
f 8 17 9
f 9 17 10
f 9 10 2
f 10 18 19
f 10 19 11
f 11 19 20
f 11 20 12
f 12 20 21
f 12 21 13
f 13 21 22
f 13 22 14
f 14 22 23
f 14 23 15
f 15 23 24
f 15 24 16
f 16 24 25
f 16 25 17
f 17 25 18
f 17 18 10
f 18 26 27
f 18 27 19
f 19 27 28
f 19 28 20
f 20 28 29
f 20 29 21
f 21 29 30
f 21 30 22
f 22 30 31
f 22 31 23
f 23 31 32
f 23 32 24
f 24 32 33
f 24 33 25
f 25 33 26
f 25 26 18
f 26 34 27
f 27 34 28
f 28 34 29
f 29 34 30
f 30 34 31
f 31 34 32
f 32 34 33
f 33 34 26
o body_chest
v 0.00000 1.18340 0.31020
v 0.26897 1.10456 0.31020
v 0.19019 1.10456 0.44736
v 0.00000 1.10456 0.50417
v -0.19019 1.10456 0.44736
v -0.26897 1.10456 0.31020
v -0.19019 1.10456 0.17304
v -0.00000 1.10456 0.11623
v 0.19019 1.10456 0.17304
v 0.43520 0.89816 0.31020
v 0.30774 0.89816 0.53212
v 0.00000 0.89816 0.62405
v -0.30774 0.89816 0.53212
v -0.43520 0.89816 0.31020
v -0.30774 0.89816 0.08828
v -0.00000 0.89816 -0.00365
v 0.30774 0.89816 0.08828
v 0.43520 0.64304 0.31020
v 0.30774 0.64304 0.53212
v 0.00000 0.64304 0.62405
v -0.30774 0.64304 0.53212
v -0.43520 0.64304 0.31020
v -0.30774 0.64304 0.08828
v -0.00000 0.64304 -0.00365
v 0.30774 0.64304 0.08828
v 0.26897 0.43664 0.31020
v 0.19019 0.43664 0.44736
v 0.00000 0.43664 0.50417
v -0.19019 0.43664 0.44736
v -0.26897 0.43664 0.31020
v -0.19019 0.43664 0.17304
v -0.00000 0.43664 0.11623
v 0.19019 0.43664 0.17304
v 0.00000 0.35780 0.31020
f 35 36 37
f 35 37 38
f 35 38 39
f 35 39 40
f 35 40 41
f 35 41 42
f 35 42 43
f 35 43 36
f 36 44 45
f 36 45 37
f 37 45 46
f 37 46 38
f 38 46 47
f 38 47 39
f 39 47 48
f 39 48 40
f 40 48 49
f 40 49 41
f 41 49 50
f 41 50 42
f 42 50 51
f 42 51 43
f 43 51 44
f 43 44 36
f 44 52 53
f 44 53 45
f 45 53 54
f 45 54 46
f 46 54 55
f 46 55 47
f 47 55 56
f 47 56 48
f 48 56 57
f 48 57 49
f 49 57 58
f 49 58 50
f 50 58 59
f 50 59 51
f 51 59 52
f 51 52 44
f 52 60 61
f 52 61 53
f 53 61 62
f 53 62 54
f 54 62 63
f 54 63 55
f 55 63 64
f 55 64 56
f 56 64 65
f 56 65 57
f 57 65 66
f 57 66 58
f 58 66 67
f 58 67 59
f 59 67 60
f 59 60 52
f 60 68 61
f 61 68 62
f 62 68 63
f 63 68 64
f 64 68 65
f 65 68 66
f 66 68 67
f 67 68 60
o body_rump
v 0.00000 1.16700 -0.28380
v 0.29342 1.08652 -0.28380
v 0.20748 1.08652 -0.14116
v 0.00000 1.08652 -0.08207
v -0.20748 1.08652 -0.14116
v -0.29342 1.08652 -0.28380
v -0.20748 1.08652 -0.42644
v -0.00000 1.08652 -0.48553
v 0.20748 1.08652 -0.42644
v 0.47477 0.87582 -0.28380
v 0.33571 0.87582 -0.05300
v 0.00000 0.87582 0.04260
v -0.33571 0.87582 -0.05300
v -0.47477 0.87582 -0.28380
v -0.33571 0.87582 -0.51460
v -0.00000 0.87582 -0.61020
v 0.33571 0.87582 -0.51460
v 0.47477 0.61538 -0.28380
v 0.33571 0.61538 -0.05300
v 0.00000 0.61538 0.04260
v -0.33571 0.61538 -0.05300
v -0.47477 0.61538 -0.28380
v -0.33571 0.61538 -0.51460
v -0.00000 0.61538 -0.61020
v 0.33571 0.61538 -0.51460
v 0.29342 0.40468 -0.28380
v 0.20748 0.40468 -0.14116
v 0.00000 0.40468 -0.08207
v -0.20748 0.40468 -0.14116
v -0.29342 0.40468 -0.28380
v -0.20748 0.40468 -0.42644
v -0.00000 0.40468 -0.48553
v 0.20748 0.40468 -0.42644
v 0.00000 0.32420 -0.28380
f 69 70 71
f 69 71 72
f 69 72 73
f 69 73 74
f 69 74 75
f 69 75 76
f 69 76 77
f 69 77 70
f 70 78 79
f 70 79 71
f 71 79 80
f 71 80 72
f 72 80 81
f 72 81 73
f 73 81 82
f 73 82 74
f 74 82 83
f 74 83 75
f 75 83 84
f 75 84 76
f 76 84 85
f 76 85 77
f 77 85 78
f 77 78 70
f 78 86 87
f 78 87 79
f 79 87 88
f 79 88 80
f 80 88 89
f 80 89 81
f 81 89 90
f 81 90 82
f 82 90 91
f 82 91 83
f 83 91 92
f 83 92 84
f 84 92 93
f 84 93 85
f 85 93 86
f 85 86 78
f 86 94 95
f 86 95 87
f 87 95 96
f 87 96 88
f 88 96 97
f 88 97 89
f 89 97 98
f 89 98 90
f 90 98 99
f 90 99 91
f 91 99 100
f 91 100 92
f 92 100 101
f 92 101 93
f 93 101 94
f 93 94 86
f 94 102 95
f 95 102 96
f 96 102 97
f 97 102 98
f 98 102 99
f 99 102 100
f 100 102 101
f 101 102 94
o head
v 0.00000 1.66010 0.64490
v 0.24099 1.58753 0.64490
v 0.17041 1.58753 0.79868
v 0.00000 1.58753 0.86238
v -0.17041 1.58753 0.79868
v -0.24099 1.58753 0.64490
v -0.17041 1.58753 0.49112
v -0.00000 1.58753 0.42742
v 0.17041 1.58753 0.49112
v 0.38993 1.39753 0.64490
v 0.27572 1.39753 0.89372
v 0.00000 1.39753 0.99679
v -0.27572 1.39753 0.89372
v -0.38993 1.39753 0.64490
v -0.27572 1.39753 0.39608
v -0.00000 1.39753 0.29301
v 0.27572 1.39753 0.39608
v 0.38993 1.16267 0.64490
v 0.27572 1.16267 0.89372
v 0.00000 1.16267 0.99679
v -0.27572 1.16267 0.89372
v -0.38993 1.16267 0.64490
v -0.27572 1.16267 0.39608
v -0.00000 1.16267 0.29301
v 0.27572 1.16267 0.39608
v 0.24099 0.97267 0.64490
v 0.17041 0.97267 0.79868
v 0.00000 0.97267 0.86238
v -0.17041 0.97267 0.79868
v -0.24099 0.97267 0.64490
v -0.17041 0.97267 0.49112
v -0.00000 0.97267 0.42742
v 0.17041 0.97267 0.49112
v 0.00000 0.90010 0.64490
f 103 104 105
f 103 105 106
f 103 106 107
f 103 107 108
f 103 108 109
f 103 109 110
f 103 110 111
f 103 111 104
f 104 112 113
f 104 113 105
f 105 113 114
f 105 114 106
f 106 114 115
f 106 115 107
f 107 115 116
f 107 116 108
f 108 116 117
f 108 117 109
f 109 117 118
f 109 118 110
f 110 118 119
f 110 119 111
f 111 119 112
f 111 112 104
f 112 120 121
f 112 121 113
f 113 121 122
f 113 122 114
f 114 122 123
f 114 123 115
f 115 123 124
f 115 124 116
f 116 124 125
f 116 125 117
f 117 125 126
f 117 126 118
f 118 126 127
f 118 127 119
f 119 127 120
f 119 120 112
f 120 128 129
f 120 129 121
f 121 129 130
f 121 130 122
f 122 130 131
f 122 131 123
f 123 131 132
f 123 132 124
f 124 132 133
f 124 133 125
f 125 133 134
f 125 134 126
f 126 134 135
f 126 135 127
f 127 135 128
f 127 128 120
f 128 136 129
f 129 136 130
f 130 136 131
f 131 136 132
f 132 136 133
f 133 136 134
f 134 136 135
f 135 136 128
o mark_cream_muzzleL
v -0.07380 1.26110 0.93350
v 0.01142 1.22690 0.93350
v -0.03119 1.22690 0.98345
v -0.11641 1.22690 0.98345
v -0.15902 1.22690 0.93350
v -0.11641 1.22690 0.88355
v -0.03119 1.22690 0.88355
v 0.01142 1.15850 0.93350
v -0.03119 1.15850 0.98345
v -0.11641 1.15850 0.98345
v -0.15902 1.15850 0.93350
v -0.11641 1.15850 0.88355
v -0.03119 1.15850 0.88355
v -0.07380 1.12430 0.93350
f 137 138 139
f 137 139 140
f 137 140 141
f 137 141 142
f 137 142 143
f 137 143 138
f 138 144 145
f 138 145 139
f 139 145 146
f 139 146 140
f 140 146 147
f 140 147 141
f 141 147 148
f 141 148 142
f 142 148 149
f 142 149 143
f 143 149 144
f 143 144 138
f 144 150 145
f 145 150 146
f 146 150 147
f 147 150 148
f 148 150 149
f 149 150 144
o mark_cream_muzzleR
v 0.07380 1.26110 0.93350
v 0.15902 1.22690 0.93350
v 0.11641 1.22690 0.98345
v 0.03119 1.22690 0.98345
v -0.01142 1.22690 0.93350
v 0.03119 1.22690 0.88355
v 0.11641 1.22690 0.88355
v 0.15902 1.15850 0.93350
v 0.11641 1.15850 0.98345
v 0.03119 1.15850 0.98345
v -0.01142 1.15850 0.93350
v 0.03119 1.15850 0.88355
v 0.11641 1.15850 0.88355
v 0.07380 1.12430 0.93350
f 151 152 153
f 151 153 154
f 151 154 155
f 151 155 156
f 151 156 157
f 151 157 152
f 152 158 159
f 152 159 153
f 153 159 160
f 153 160 154
f 154 160 161
f 154 161 155
f 155 161 162
f 155 162 156
f 156 162 163
f 156 163 157
f 157 163 158
f 157 158 152
f 158 164 159
f 159 164 160
f 160 164 161
f 161 164 162
f 162 164 163
f 163 164 158
o ear_L
v -0.31680 1.54230 0.54500
v -0.07680 1.54230 0.54500
v -0.07680 1.54230 0.71520
v -0.31680 1.54230 0.71520
v -0.19680 1.77230 0.63010
f 165 166 167
f 165 167 168
f 165 169 166
f 166 169 167
f 167 169 168
f 168 169 165
o ear_R
v 0.07680 1.54230 0.54500
v 0.31680 1.54230 0.54500
v 0.31680 1.54230 0.71520
v 0.07680 1.54230 0.71520
v 0.19680 1.77230 0.63010
f 170 171 172
f 170 172 173
f 170 174 171
f 171 174 172
f 172 174 173
f 173 174 170
o leg_0
v -0.27040 0.54486 0.36151
v -0.33774 0.54262 0.32269
v -0.33774 0.53986 0.24498
v -0.27040 0.53934 0.20609
v -0.20306 0.54158 0.24491
v -0.20306 0.54434 0.32262
v -0.26499 0.12215 0.35924
v -0.31736 0.12040 0.32904
v -0.31736 0.11826 0.26860
v -0.26499 0.11785 0.23836
v -0.21262 0.11960 0.26856
v -0.21262 0.12174 0.32900
f 175 176 182
f 175 182 181
f 176 177 183
f 176 183 182
f 177 178 184
f 177 184 183
f 178 179 185
f 178 185 184
f 179 180 186
f 179 186 185
f 180 175 181
f 180 181 186
f 180 179 178 177 176 175
f 181 182 183 184 185 186
o paw_0
v -0.26499 0.14000 0.33120
v -0.18268 0.10750 0.33120
v -0.22384 0.10750 0.41868
v -0.30615 0.10750 0.41868
v -0.34730 0.10750 0.33120
v -0.30615 0.10750 0.24372
v -0.22384 0.10750 0.24372
v -0.18268 0.04250 0.33120
v -0.22384 0.04250 0.41868
v -0.30615 0.04250 0.41868
v -0.34730 0.04250 0.33120
v -0.30615 0.04250 0.24372
v -0.22384 0.04250 0.24372
v -0.26499 0.01000 0.33120
f 187 188 189
f 187 189 190
f 187 190 191
f 187 191 192
f 187 192 193
f 187 193 188
f 188 194 195
f 188 195 189
f 189 195 196
f 189 196 190
f 190 196 197
f 190 197 191
f 191 197 198
f 191 198 192
f 192 198 199
f 192 199 193
f 193 199 194
f 193 194 188
f 194 200 195
f 195 200 196
f 196 200 197
f 197 200 198
f 198 200 199
f 199 200 194
o leg_1
v 0.27040 0.54486 0.36151
v 0.20306 0.54434 0.32262
v 0.20306 0.54158 0.24491
v 0.27040 0.53934 0.20609
v 0.33774 0.53986 0.24498
v 0.33774 0.54262 0.32269
v 0.26499 0.12215 0.35924
v 0.21262 0.12174 0.32900
v 0.21262 0.11960 0.26856
v 0.26499 0.11785 0.23836
v 0.31736 0.11826 0.26860
v 0.31736 0.12040 0.32904
f 201 202 208
f 201 208 207
f 202 203 209
f 202 209 208
f 203 204 210
f 203 210 209
f 204 205 211
f 204 211 210
f 205 206 212
f 205 212 211
f 206 201 207
f 206 207 212
f 206 205 204 203 202 201
f 207 208 209 210 211 212
o paw_1
v 0.26499 0.14000 0.33120
v 0.34730 0.10750 0.33120
v 0.30615 0.10750 0.41868
v 0.22384 0.10750 0.41868
v 0.18268 0.10750 0.33120
v 0.22384 0.10750 0.24372
v 0.30615 0.10750 0.24372
v 0.34730 0.04250 0.33120
v 0.30615 0.04250 0.41868
v 0.22384 0.04250 0.41868
v 0.18268 0.04250 0.33120
v 0.22384 0.04250 0.24372
v 0.30615 0.04250 0.24372
v 0.26499 0.01000 0.33120
f 213 214 215
f 213 215 216
f 213 216 217
f 213 217 218
f 213 218 219
f 213 219 214
f 214 220 221
f 214 221 215
f 215 221 222
f 215 222 216
f 216 222 223
f 216 223 217
f 217 223 224
f 217 224 218
f 218 224 225
f 218 225 219
f 219 225 220
f 219 220 214
f 220 226 221
f 221 226 222
f 222 226 223
f 223 226 224
f 224 226 225
f 225 226 220
o leg_2
v -0.27040 0.54026 -0.19946
v -0.33774 0.54032 -0.23835
v -0.33774 0.54216 -0.31609
v -0.27040 0.54394 -0.35494
v -0.20306 0.54388 -0.31605
v -0.20306 0.54204 -0.23831
v -0.26499 0.11857 -0.22674
v -0.31736 0.11861 -0.25698
v -0.31736 0.12005 -0.31745
v -0.26499 0.12143 -0.34766
v -0.21262 0.12139 -0.31742
v -0.21262 0.11995 -0.25695
f 227 228 234
f 227 234 233
f 228 229 235
f 228 235 234
f 229 230 236
f 229 236 235
f 230 231 237
f 230 237 236
f 231 232 238
f 231 238 237
f 232 227 233
f 232 233 238
f 232 231 230 229 228 227
f 233 234 235 236 237 238
o paw_2
v -0.26499 0.14000 -0.25480
v -0.18268 0.10750 -0.25480
v -0.22384 0.10750 -0.16732
v -0.30615 0.10750 -0.16732
v -0.34730 0.10750 -0.25480
v -0.30615 0.10750 -0.34228
v -0.22384 0.10750 -0.34228
v -0.18268 0.04250 -0.25480
v -0.22384 0.04250 -0.16732
v -0.30615 0.04250 -0.16732
v -0.34730 0.04250 -0.25480
v -0.30615 0.04250 -0.34228
v -0.22384 0.04250 -0.34228
v -0.26499 0.01000 -0.25480
f 239 240 241
f 239 241 242
f 239 242 243
f 239 243 244
f 239 244 245
f 239 245 240
f 240 246 247
f 240 247 241
f 241 247 248
f 241 248 242
f 242 248 249
f 242 249 243
f 243 249 250
f 243 250 244
f 244 250 251
f 244 251 245
f 245 251 246
f 245 246 240
f 246 252 247
f 247 252 248
f 248 252 249
f 249 252 250
f 250 252 251
f 251 252 246
o leg_3
v 0.27040 0.54026 -0.19946
v 0.20306 0.54204 -0.23831
v 0.20306 0.54388 -0.31605
v 0.27040 0.54394 -0.35494
v 0.33774 0.54216 -0.31609
v 0.33774 0.54032 -0.23835
v 0.26499 0.11857 -0.22674
v 0.21262 0.11995 -0.25695
v 0.21262 0.12139 -0.31742
v 0.26499 0.12143 -0.34766
v 0.31736 0.12005 -0.31745
v 0.31736 0.11861 -0.25698
f 253 254 260
f 253 260 259
f 254 255 261
f 254 261 260
f 255 256 262
f 255 262 261
f 256 257 263
f 256 263 262
f 257 258 264
f 257 264 263
f 258 253 259
f 258 259 264
f 258 257 256 255 254 253
f 259 260 261 262 263 264
o paw_3
v 0.26499 0.14000 -0.25480
v 0.34730 0.10750 -0.25480
v 0.30615 0.10750 -0.16732
v 0.22384 0.10750 -0.16732
v 0.18268 0.10750 -0.25480
v 0.22384 0.10750 -0.34228
v 0.30615 0.10750 -0.34228
v 0.34730 0.04250 -0.25480
v 0.30615 0.04250 -0.16732
v 0.22384 0.04250 -0.16732
v 0.18268 0.04250 -0.25480
v 0.22384 0.04250 -0.34228
v 0.30615 0.04250 -0.34228
v 0.26499 0.01000 -0.25480
f 265 266 267
f 265 267 268
f 265 268 269
f 265 269 270
f 265 270 271
f 265 271 266
f 266 272 273
f 266 273 267
f 267 273 274
f 267 274 268
f 268 274 275
f 268 275 269
f 269 275 276
f 269 276 270
f 270 276 277
f 270 277 271
f 271 277 272
f 271 272 266
f 272 278 273
f 273 278 274
f 274 278 275
f 275 278 276
f 276 278 277
f 277 278 272
o tail_0
v 0.28078 0.81300 -0.37311
v 0.27462 0.73232 -0.44003
v 0.20184 0.73232 -0.51571
v 0.13522 0.81300 -0.52449
v 0.14138 0.89368 -0.45757
v 0.21416 0.89368 -0.38189
v 0.43917 0.93300 -0.54144
v 0.43369 0.86119 -0.60099
v 0.36892 0.86119 -0.66835
v 0.30963 0.93300 -0.67616
v 0.31511 1.00481 -0.61661
v 0.37988 1.00481 -0.54925
f 279 280 286
f 279 286 285
f 280 281 287
f 280 287 286
f 281 282 288
f 281 288 287
f 282 283 289
f 282 289 288
f 283 284 290
f 283 290 289
f 284 279 285
f 284 285 290
f 284 283 282 281 280 279
f 285 286 287 288 289 290
o tail_1
v 0.37440 0.92454 -0.70187
v 0.29402 0.93819 -0.65619
v 0.29402 0.94665 -0.56312
v 0.37440 0.94146 -0.51573
v 0.45478 0.92781 -0.56141
v 0.45478 0.91935 -0.65448
v 0.40040 1.14559 -0.71036
v 0.32996 1.15755 -0.67033
v 0.32996 1.16496 -0.58877
v 0.40040 1.16041 -0.54724
v 0.47084 1.14845 -0.58727
v 0.47084 1.14104 -0.66883
f 291 292 298
f 291 298 297
f 292 293 299
f 292 299 298
f 293 294 300
f 293 300 299
f 294 295 301
f 294 301 300
f 295 296 302
f 295 302 301
f 296 291 297
f 296 297 302
f 296 295 294 293 292 291
f 297 298 299 300 301 302
o tail_2
v 0.35046 1.15300 -0.69372
v 0.32944 1.11221 -0.62588
v 0.37937 1.11221 -0.56096
v 0.45034 1.15300 -0.56388
v 0.47136 1.19379 -0.63172
v 0.42143 1.19379 -0.69664
v 0.27951 1.29300 -0.62456
v 0.26145 1.25796 -0.56629
v 0.30434 1.25796 -0.51053
v 0.36529 1.29300 -0.51304
v 0.38335 1.32804 -0.57131
v 0.34046 1.32804 -0.62707
f 303 304 310
f 303 310 309
f 304 305 311
f 304 311 310
f 305 306 312
f 305 312 311
f 306 307 313
f 306 313 312
f 307 308 314
f 307 314 313
f 308 303 309
f 308 309 314
f 308 307 306 305 304 303
f 309 310 311 312 313 314
o detail_eye
v -0.12710 1.32760 0.98160
v -0.10225 1.31525 0.98160
v -0.11467 1.31525 0.99409
v -0.13953 1.31525 0.99409
v -0.15195 1.31525 0.98160
v -0.13953 1.31525 0.96911
v -0.11467 1.31525 0.96911
v -0.10225 1.29055 0.98160
v -0.11467 1.29055 0.99409
v -0.13953 1.29055 0.99409
v -0.15195 1.29055 0.98160
v -0.13953 1.29055 0.96911
v -0.11467 1.29055 0.96911
v -0.12710 1.27820 0.98160
f 315 316 317
f 315 317 318
f 315 318 319
f 315 319 320
f 315 320 321
f 315 321 316
f 316 322 323
f 316 323 317
f 317 323 324
f 317 324 318
f 318 324 325
f 318 325 319
f 319 325 326
f 319 326 320
f 320 326 327
f 320 327 321
f 321 327 322
f 321 322 316
f 322 328 323
f 323 328 324
f 324 328 325
f 325 328 326
f 326 328 327
f 327 328 322
o detail_eye
v 0.12710 1.32760 0.98160
v 0.15195 1.31525 0.98160
v 0.13953 1.31525 0.99409
v 0.11467 1.31525 0.99409
v 0.10225 1.31525 0.98160
v 0.11467 1.31525 0.96911
v 0.13953 1.31525 0.96911
v 0.15195 1.29055 0.98160
v 0.13953 1.29055 0.99409
v 0.11467 1.29055 0.99409
v 0.10225 1.29055 0.98160
v 0.11467 1.29055 0.96911
v 0.13953 1.29055 0.96911
v 0.12710 1.27820 0.98160
f 329 330 331
f 329 331 332
f 329 332 333
f 329 333 334
f 329 334 335
f 329 335 330
f 330 336 337
f 330 337 331
f 331 337 338
f 331 338 332
f 332 338 339
f 332 339 333
f 333 339 340
f 333 340 334
f 334 340 341
f 334 341 335
f 335 341 336
f 335 336 330
f 336 342 337
f 337 342 338
f 338 342 339
f 339 342 340
f 340 342 341
f 341 342 336
o detail_nose
v 0.00000 1.22500 1.00010
v 0.02663 1.21455 1.00010
v 0.01332 1.21455 1.01259
v -0.01332 1.21455 1.01259
v -0.02663 1.21455 1.00010
v -0.01332 1.21455 0.98761
v 0.01332 1.21455 0.98761
v 0.02663 1.19365 1.00010
v 0.01332 1.19365 1.01259
v -0.01332 1.19365 1.01259
v -0.02663 1.19365 1.00010
v -0.01332 1.19365 0.98761
v 0.01332 1.19365 0.98761
v 0.00000 1.18320 1.00010
f 343 344 345
f 343 345 346
f 343 346 347
f 343 347 348
f 343 348 349
f 343 349 344
f 344 350 351
f 344 351 345
f 345 351 352
f 345 352 346
f 346 352 353
f 346 353 347
f 347 353 354
f 347 354 348
f 348 354 355
f 348 355 349
f 349 355 350
f 349 350 344
f 350 356 351
f 351 356 352
f 352 356 353
f 353 356 354
f 354 356 355
f 355 356 350
