# 3D Printer Online 4.0 final connected low-poly cat
v 0.229950 0.785000 -0.860000
v 0.162599 0.945867 -0.860000
v 0.000000 1.012500 -0.860000
v -0.162599 0.945867 -0.860000
v -0.229950 0.785000 -0.860000
v -0.162599 0.624133 -0.860000
v -0.000000 0.557500 -0.860000
v 0.162599 0.624133 -0.860000
v 0.315000 0.800000 -0.516000
v 0.222739 1.029810 -0.516000
v 0.000000 1.125000 -0.516000
v -0.222739 1.029810 -0.516000
v -0.315000 0.800000 -0.516000
v -0.222739 0.570190 -0.516000
v -0.000000 0.475000 -0.516000
v 0.222739 0.570190 -0.516000
v 0.308700 0.825000 -0.103200
v 0.218284 1.050214 -0.103200
v 0.000000 1.143500 -0.103200
v -0.218284 1.050214 -0.103200
v -0.308700 0.825000 -0.103200
v -0.218284 0.599786 -0.103200
v -0.000000 0.506500 -0.103200
v 0.218284 0.599786 -0.103200
v 0.277200 0.845000 0.326800
v 0.196010 1.058723 0.326800
v 0.000000 1.147250 0.326800
v -0.196010 1.058723 0.326800
v -0.277200 0.845000 0.326800
v -0.196010 0.631277 0.326800
v -0.000000 0.542750 0.326800
v 0.196010 0.631277 0.326800
v 0.229950 0.900000 0.533200
v 0.162599 1.079252 0.533200
v 0.000000 1.153500 0.533200
v -0.162599 1.079252 0.533200
v -0.229950 0.900000 0.533200
v -0.162599 0.720748 0.533200
v -0.000000 0.646500 0.533200
v 0.162599 0.720748 0.533200
v 0.218300 1.000000 0.627800
v 0.154361 1.132229 0.627800
v 0.000000 1.187000 0.627800
v -0.154361 1.132229 0.627800
v -0.218300 1.000000 0.627800
v -0.154361 0.867771 0.627800
v -0.000000 0.813000 0.627800
v 0.154361 0.867771 0.627800
v 0.259600 1.130000 0.705200
v 0.183565 1.293342 0.705200
v 0.000000 1.361000 0.705200
v -0.183565 1.293342 0.705200
v -0.259600 1.130000 0.705200
v -0.183565 0.966658 0.705200
v -0.000000 0.899000 0.705200
v 0.183565 0.966658 0.705200
v 0.295000 1.220000 0.799800
v 0.208597 1.414454 0.799800
v 0.000000 1.495000 0.799800
v -0.208597 1.414454 0.799800
v -0.295000 1.220000 0.799800
v -0.208597 1.025546 0.799800
v -0.000000 0.945000 0.799800
v 0.208597 1.025546 0.799800
v 0.259600 1.200000 1.030000
v 0.183565 1.363342 1.030000
v 0.000000 1.431000 1.030000
v -0.183565 1.363342 1.030000
v -0.259600 1.200000 1.030000
v -0.183565 1.036658 1.030000
v -0.000000 0.969000 1.030000
v 0.183565 1.036658 1.030000
v 0.156350 1.120000 1.220000
v 0.110556 1.209449 1.220000
v 0.000000 1.246500 1.220000
v -0.110556 1.209449 1.220000
v -0.156350 1.120000 1.220000
v -0.110556 1.030551 1.220000
v -0.000000 0.993500 1.220000
v 0.110556 1.030551 1.220000
v 0.000000 0.785000 -0.860000
v 0.000000 1.120000 1.220000
v -0.271400 1.290000 1.010000
v -0.047200 1.290000 1.010000
v -0.071862 1.325000 0.770000
v -0.246738 1.325000 0.770000
v -0.159300 1.710000 0.890000
v 0.047200 1.290000 1.010000
v 0.271400 1.290000 1.010000
v 0.246738 1.325000 0.770000
v 0.071862 1.325000 0.770000
v 0.159300 1.710000 0.890000
v -0.166950 0.812628 0.402354
v -0.232415 0.812263 0.364544
v -0.232415 0.809635 0.288990
v -0.166950 0.807372 0.251246
v -0.101485 0.807737 0.289056
v -0.101485 0.810365 0.364610
v -0.170289 0.581822 0.388319
v -0.216664 0.580746 0.361565
v -0.216664 0.578924 0.308046
v -0.170289 0.578178 0.281281
v -0.123914 0.579254 0.308035
v -0.123914 0.581076 0.361554
v -0.165281 0.341592 0.382143
v -0.199379 0.340535 0.362482
v -0.199379 0.338943 0.323139
v -0.165281 0.338408 0.303457
v -0.131182 0.339465 0.323118
v -0.131182 0.341057 0.362461
v -0.166950 0.152101 0.381470
v -0.192865 0.148706 0.366897
v -0.192865 0.141605 0.337827
v -0.166950 0.137899 0.323330
v -0.141035 0.141294 0.337903
v -0.141035 0.148395 0.366973
v -0.206325 0.078000 0.406800
v -0.186638 0.056506 0.380327
v -0.147263 0.056506 0.380327
v -0.127575 0.078000 0.406800
v -0.147262 0.099494 0.433273
v -0.186638 0.099494 0.433273
v -0.166950 0.810000 0.326800
v -0.166950 0.078000 0.406800
v -0.166950 0.808521 -0.294214
v -0.232415 0.810211 -0.331989
v -0.232415 0.811689 -0.407574
v -0.166950 0.811479 -0.445386
v -0.101485 0.809789 -0.407611
v -0.101485 0.808311 -0.332026
v -0.170289 0.578975 -0.320760
v -0.216664 0.579323 -0.347533
v -0.216664 0.580348 -0.401073
v -0.170289 0.581025 -0.427840
v -0.123914 0.580677 -0.401067
v -0.123914 0.579652 -0.347527
v -0.165281 0.339104 -0.339435
v -0.199379 0.339290 -0.359124
v -0.199379 0.340186 -0.398488
v -0.165281 0.340896 -0.418165
v -0.131182 0.340710 -0.398476
v -0.131182 0.339814 -0.359112
v -0.166950 0.140926 -0.354554
v -0.192865 0.143125 -0.369355
v -0.192865 0.147199 -0.399001
v -0.166950 0.149074 -0.413846
v -0.141035 0.146875 -0.399045
v -0.141035 0.142801 -0.369399
v -0.166950 0.061642 -0.378984
v -0.201050 0.069821 -0.396892
v -0.201050 0.086179 -0.432708
v -0.166950 0.094358 -0.450616
v -0.132850 0.086179 -0.432708
v -0.132850 0.069821 -0.396892
v -0.166950 0.810000 -0.369800
v -0.166950 0.078000 -0.414800
v 0.166950 0.812628 0.402354
v 0.101485 0.810365 0.364610
v 0.101485 0.807737 0.289056
v 0.166950 0.807372 0.251246
v 0.232415 0.809635 0.288990
v 0.232415 0.812263 0.364544
v 0.170289 0.581822 0.388319
v 0.123914 0.581076 0.361554
v 0.123914 0.579254 0.308035
v 0.170289 0.578178 0.281281
v 0.216664 0.578924 0.308046
v 0.216664 0.580746 0.361565
v 0.165281 0.341592 0.382143
v 0.131182 0.341057 0.362461
v 0.131182 0.339465 0.323118
v 0.165281 0.338408 0.303457
v 0.199379 0.338943 0.323139
v 0.199379 0.340535 0.362482
v 0.166950 0.152101 0.381470
v 0.141035 0.148395 0.366973
v 0.141035 0.141294 0.337903
v 0.166950 0.137899 0.323330
v 0.192865 0.141605 0.337827
v 0.192865 0.148706 0.366897
v 0.127575 0.078000 0.406800
v 0.147263 0.056506 0.380327
v 0.186638 0.056506 0.380327
v 0.206325 0.078000 0.406800
v 0.186638 0.099494 0.433273
v 0.147263 0.099494 0.433273
v 0.166950 0.810000 0.326800
v 0.166950 0.078000 0.406800
v 0.166950 0.808521 -0.294214
v 0.101485 0.808311 -0.332026
v 0.101485 0.809789 -0.407611
v 0.166950 0.811479 -0.445386
v 0.232415 0.811689 -0.407574
v 0.232415 0.810211 -0.331989
v 0.170289 0.578975 -0.320760
v 0.123914 0.579652 -0.347527
v 0.123914 0.580677 -0.401067
v 0.170289 0.581025 -0.427840
v 0.216664 0.580348 -0.401073
v 0.216664 0.579323 -0.347533
v 0.165281 0.339104 -0.339435
v 0.131182 0.339814 -0.359112
v 0.131182 0.340710 -0.398476
v 0.165281 0.340896 -0.418165
v 0.199379 0.340186 -0.398488
v 0.199379 0.339290 -0.359124
v 0.166950 0.140926 -0.354554
v 0.141035 0.142801 -0.369399
v 0.141035 0.146875 -0.399045
v 0.166950 0.149074 -0.413846
v 0.192865 0.147199 -0.399001
v 0.192865 0.143125 -0.369355
v 0.166950 0.061642 -0.378984
v 0.132850 0.069821 -0.396892
v 0.132850 0.086179 -0.432708
v 0.166950 0.094358 -0.450616
v 0.201050 0.086179 -0.432708
v 0.201050 0.069821 -0.396892
v 0.166950 0.810000 -0.369800
v 0.166950 0.078000 -0.414800
v 0.062694 0.820000 -0.596748
v -0.000437 0.731546 -0.617838
v -0.107231 0.731546 -0.588690
v -0.150894 0.820000 -0.538452
v -0.087763 0.908454 -0.517362
v 0.019031 0.908454 -0.546510
v -0.071263 0.990000 -0.978277
v -0.120084 0.931132 -1.007857
v -0.200021 0.931132 -0.989580
v -0.231137 0.990000 -0.941723
v -0.182316 1.048868 -0.912143
v -0.102379 1.048868 -0.930420
v -0.110870 1.230000 -1.154755
v -0.141523 1.195162 -1.205659
v -0.210203 1.195162 -1.210903
v -0.248230 1.230000 -1.165245
v -0.217577 1.264838 -1.114341
v -0.148897 1.264838 -1.109097
v -0.126000 1.433368 -1.343222
v -0.170582 1.459396 -1.322146
v -0.170582 1.476028 -1.268924
v -0.126000 1.466632 -1.236778
v -0.081418 1.440604 -1.257854
v -0.081418 1.423972 -1.311076
v -0.054044 1.550000 -1.219739
v -0.021245 1.525134 -1.230878
v -0.007201 1.525134 -1.271138
v -0.025956 1.550000 -1.300261
v -0.058755 1.574866 -1.289122
v -0.072799 1.574866 -1.248862
v -0.044100 0.820000 -0.567600
v -0.040000 1.550000 -1.260000
v -0.066375 1.235000 1.241000
v -0.085740 1.252000 1.241000
v -0.117073 1.245507 1.241000
v -0.117073 1.224493 1.241000
v -0.085740 1.218000 1.241000
v -0.066375 1.235000 1.229000
v -0.085740 1.252000 1.229000
v -0.117073 1.245507 1.229000
v -0.117073 1.224493 1.229000
v -0.085740 1.218000 1.229000
v 0.122425 1.235000 1.241000
v 0.103060 1.252000 1.241000
v 0.071727 1.245507 1.241000
v 0.071727 1.224493 1.241000
v 0.103060 1.218000 1.241000
v 0.122425 1.235000 1.229000
v 0.103060 1.252000 1.229000
v 0.071727 1.245507 1.229000
v 0.071727 1.224493 1.229000
v 0.103060 1.218000 1.229000
v 0.030975 1.075000 1.255000
v 0.000000 1.092875 1.255000
v -0.030975 1.075000 1.255000
v -0.000000 1.057125 1.255000
v 0.030975 1.075000 1.243000
v 0.000000 1.092875 1.243000
v -0.030975 1.075000 1.243000
v -0.000000 1.057125 1.243000
v 0.159300 0.880000 0.609000
v 0.079650 0.936292 0.609000
v -0.079650 0.936292 0.609000
v -0.159300 0.880000 0.609000
v -0.079650 0.823708 0.609000
v 0.079650 0.823708 0.609000
v 0.159300 0.880000 0.595000
v 0.079650 0.936292 0.595000
v -0.079650 0.936292 0.595000
v -0.159300 0.880000 0.595000
v -0.079650 0.823708 0.595000
v 0.079650 0.823708 0.595000
v -0.315000 0.965250 -0.050000
v -0.315000 0.927073 0.092658
v -0.315000 0.865302 0.038168
v -0.315000 0.865302 -0.138168
v -0.315000 0.927073 -0.192658
v -0.327000 0.965250 -0.050000
v -0.327000 0.927073 0.092658
v -0.327000 0.865302 0.038168
v -0.327000 0.865302 -0.138168
v -0.327000 0.927073 -0.192658
v 0.327000 0.965250 -0.050000
v 0.327000 0.927073 0.092658
v 0.327000 0.865302 0.038168
v 0.327000 0.865302 -0.138168
v 0.327000 0.927073 -0.192658
v 0.315000 0.965250 -0.050000
v 0.315000 0.927073 0.092658
v 0.315000 0.865302 0.038168
v 0.315000 0.865302 -0.138168
v 0.315000 0.927073 -0.192658
o cat_unified_body
g cat_unified_body
f 1 2 10
f 1 10 9
f 2 3 11
f 2 11 10
f 3 4 12
f 3 12 11
f 4 5 13
f 4 13 12
f 5 6 14
f 5 14 13
f 6 7 15
f 6 15 14
f 7 8 16
f 7 16 15
f 8 1 9
f 8 9 16
f 9 10 18
f 9 18 17
f 10 11 19
f 10 19 18
f 11 12 20
f 11 20 19
f 12 13 21
f 12 21 20
f 13 14 22
f 13 22 21
f 14 15 23
f 14 23 22
f 15 16 24
f 15 24 23
f 16 9 17
f 16 17 24
f 17 18 26
f 17 26 25
f 18 19 27
f 18 27 26
f 19 20 28
f 19 28 27
f 20 21 29
f 20 29 28
f 21 22 30
f 21 30 29
f 22 23 31
f 22 31 30
f 23 24 32
f 23 32 31
f 24 17 25
f 24 25 32
f 25 26 34
f 25 34 33
f 26 27 35
f 26 35 34
f 27 28 36
f 27 36 35
f 28 29 37
f 28 37 36
f 29 30 38
f 29 38 37
f 30 31 39
f 30 39 38
f 31 32 40
f 31 40 39
f 32 25 33
f 32 33 40
f 33 34 42
f 33 42 41
f 34 35 43
f 34 43 42
f 35 36 44
f 35 44 43
f 36 37 45
f 36 45 44
f 37 38 46
f 37 46 45
f 38 39 47
f 38 47 46
f 39 40 48
f 39 48 47
f 40 33 41
f 40 41 48
f 41 42 50
f 41 50 49
f 42 43 51
f 42 51 50
f 43 44 52
f 43 52 51
f 44 45 53
f 44 53 52
f 45 46 54
f 45 54 53
f 46 47 55
f 46 55 54
f 47 48 56
f 47 56 55
f 48 41 49
f 48 49 56
f 49 50 58
f 49 58 57
f 50 51 59
f 50 59 58
f 51 52 60
f 51 60 59
f 52 53 61
f 52 61 60
f 53 54 62
f 53 62 61
f 54 55 63
f 54 63 62
f 55 56 64
f 55 64 63
f 56 49 57
f 56 57 64
f 57 58 66
f 57 66 65
f 58 59 67
f 58 67 66
f 59 60 68
f 59 68 67
f 60 61 69
f 60 69 68
f 61 62 70
f 61 70 69
f 62 63 71
f 62 71 70
f 63 64 72
f 63 72 71
f 64 57 65
f 64 65 72
f 65 66 74
f 65 74 73
f 66 67 75
f 66 75 74
f 67 68 76
f 67 76 75
f 68 69 77
f 68 77 76
f 69 70 78
f 69 78 77
f 70 71 79
f 70 79 78
f 71 72 80
f 71 80 79
f 72 65 73
f 72 73 80
f 81 2 1
f 82 73 74
f 81 3 2
f 82 74 75
f 81 4 3
f 82 75 76
f 81 5 4
f 82 76 77
f 81 6 5
f 82 77 78
f 81 7 6
f 82 78 79
f 81 8 7
f 82 79 80
f 81 1 8
f 82 80 73
o ear_left
g ear_left
f 83 84 85
f 83 85 86
f 83 87 84
f 84 87 85
f 85 87 86
f 86 87 83
o ear_right
g ear_right
f 88 89 90
f 88 90 91
f 88 92 89
f 89 92 90
f 90 92 91
f 91 92 88
o leg_front_L
g leg_front_L
f 93 94 100
f 93 100 99
f 94 95 101
f 94 101 100
f 95 96 102
f 95 102 101
f 96 97 103
f 96 103 102
f 97 98 104
f 97 104 103
f 98 93 99
f 98 99 104
f 99 100 106
f 99 106 105
f 100 101 107
f 100 107 106
f 101 102 108
f 101 108 107
f 102 103 109
f 102 109 108
f 103 104 110
f 103 110 109
f 104 99 105
f 104 105 110
f 105 106 112
f 105 112 111
f 106 107 113
f 106 113 112
f 107 108 114
f 107 114 113
f 108 109 115
f 108 115 114
f 109 110 116
f 109 116 115
f 110 105 111
f 110 111 116
f 111 112 118
f 111 118 117
f 112 113 119
f 112 119 118
f 113 114 120
f 113 120 119
f 114 115 121
f 114 121 120
f 115 116 122
f 115 122 121
f 116 111 117
f 116 117 122
f 123 94 93
f 124 117 118
f 123 95 94
f 124 118 119
f 123 96 95
f 124 119 120
f 123 97 96
f 124 120 121
f 123 98 97
f 124 121 122
f 123 93 98
f 124 122 117
o leg_rear_L
g leg_rear_L
f 125 126 132
f 125 132 131
f 126 127 133
f 126 133 132
f 127 128 134
f 127 134 133
f 128 129 135
f 128 135 134
f 129 130 136
f 129 136 135
f 130 125 131
f 130 131 136
f 131 132 138
f 131 138 137
f 132 133 139
f 132 139 138
f 133 134 140
f 133 140 139
f 134 135 141
f 134 141 140
f 135 136 142
f 135 142 141
f 136 131 137
f 136 137 142
f 137 138 144
f 137 144 143
f 138 139 145
f 138 145 144
f 139 140 146
f 139 146 145
f 140 141 147
f 140 147 146
f 141 142 148
f 141 148 147
f 142 137 143
f 142 143 148
f 143 144 150
f 143 150 149
f 144 145 151
f 144 151 150
f 145 146 152
f 145 152 151
f 146 147 153
f 146 153 152
f 147 148 154
f 147 154 153
f 148 143 149
f 148 149 154
f 155 126 125
f 156 149 150
f 155 127 126
f 156 150 151
f 155 128 127
f 156 151 152
f 155 129 128
f 156 152 153
f 155 130 129
f 156 153 154
f 155 125 130
f 156 154 149
o leg_front_R
g leg_front_R
f 157 158 164
f 157 164 163
f 158 159 165
f 158 165 164
f 159 160 166
f 159 166 165
f 160 161 167
f 160 167 166
f 161 162 168
f 161 168 167
f 162 157 163
f 162 163 168
f 163 164 170
f 163 170 169
f 164 165 171
f 164 171 170
f 165 166 172
f 165 172 171
f 166 167 173
f 166 173 172
f 167 168 174
f 167 174 173
f 168 163 169
f 168 169 174
f 169 170 176
f 169 176 175
f 170 171 177
f 170 177 176
f 171 172 178
f 171 178 177
f 172 173 179
f 172 179 178
f 173 174 180
f 173 180 179
f 174 169 175
f 174 175 180
f 175 176 182
f 175 182 181
f 176 177 183
f 176 183 182
f 177 178 184
f 177 184 183
f 178 179 185
f 178 185 184
f 179 180 186
f 179 186 185
f 180 175 181
f 180 181 186
f 187 158 157
f 188 181 182
f 187 159 158
f 188 182 183
f 187 160 159
f 188 183 184
f 187 161 160
f 188 184 185
f 187 162 161
f 188 185 186
f 187 157 162
f 188 186 181
o leg_rear_R
g leg_rear_R
f 189 190 196
f 189 196 195
f 190 191 197
f 190 197 196
f 191 192 198
f 191 198 197
f 192 193 199
f 192 199 198
f 193 194 200
f 193 200 199
f 194 189 195
f 194 195 200
f 195 196 202
f 195 202 201
f 196 197 203
f 196 203 202
f 197 198 204
f 197 204 203
f 198 199 205
f 198 205 204
f 199 200 206
f 199 206 205
f 200 195 201
f 200 201 206
f 201 202 208
f 201 208 207
f 202 203 209
f 202 209 208
f 203 204 210
f 203 210 209
f 204 205 211
f 204 211 210
f 205 206 212
f 205 212 211
f 206 201 207
f 206 207 212
f 207 208 214
f 207 214 213
f 208 209 215
f 208 215 214
f 209 210 216
f 209 216 215
f 210 211 217
f 210 217 216
f 211 212 218
f 211 218 217
f 212 207 213
f 212 213 218
f 219 190 189
f 220 213 214
f 219 191 190
f 220 214 215
f 219 192 191
f 220 215 216
f 219 193 192
f 220 216 217
f 219 194 193
f 220 217 218
f 219 189 194
f 220 218 213
o tail
g tail
f 221 222 228
f 221 228 227
f 222 223 229
f 222 229 228
f 223 224 230
f 223 230 229
f 224 225 231
f 224 231 230
f 225 226 232
f 225 232 231
f 226 221 227
f 226 227 232
f 227 228 234
f 227 234 233
f 228 229 235
f 228 235 234
f 229 230 236
f 229 236 235
f 230 231 237
f 230 237 236
f 231 232 238
f 231 238 237
f 232 227 233
f 232 233 238
f 233 234 240
f 233 240 239
f 234 235 241
f 234 241 240
f 235 236 242
f 235 242 241
f 236 237 243
f 236 243 242
f 237 238 244
f 237 244 243
f 238 233 239
f 238 239 244
f 239 240 246
f 239 246 245
f 240 241 247
f 240 247 246
f 241 242 248
f 241 248 247
f 242 243 249
f 242 249 248
f 243 244 250
f 243 250 249
f 244 239 245
f 244 245 250
f 251 222 221
f 252 245 246
f 251 223 222
f 252 246 247
f 251 224 223
f 252 247 248
f 251 225 224
f 252 248 249
f 251 226 225
f 252 249 250
f 251 221 226
f 252 250 245
o detail_eye_left
g detail_eye_left
f 253 254 255
f 258 260 259
f 253 255 256
f 258 261 260
f 253 256 257
f 258 262 261
f 253 258 259
f 253 259 254
f 254 259 260
f 254 260 255
f 255 260 261
f 255 261 256
f 256 261 262
f 256 262 257
f 257 262 258
f 257 258 253
o detail_eye_right
g detail_eye_right
f 263 264 265
f 268 270 269
f 263 265 266
f 268 271 270
f 263 266 267
f 268 272 271
f 263 268 269
f 263 269 264
f 264 269 270
f 264 270 265
f 265 270 271
f 265 271 266
f 266 271 272
f 266 272 267
f 267 272 268
f 267 268 263
o detail_nose
g detail_nose
f 273 274 275
f 277 279 278
f 273 275 276
f 277 280 279
f 273 277 278
f 273 278 274
f 274 278 279
f 274 279 275
f 275 279 280
f 275 280 276
f 276 280 277
f 276 277 273
o mark_cream_chest
g mark_cream_chest
f 281 282 283
f 287 289 288
f 281 283 284
f 287 290 289
f 281 284 285
f 287 291 290
f 281 285 286
f 287 292 291
f 281 287 288
f 281 288 282
f 282 288 289
f 282 289 283
f 283 289 290
f 283 290 284
f 284 290 291
f 284 291 285
f 285 291 292
f 285 292 286
f 286 292 287
f 286 287 281
o mark_dark_flank_-1
g mark_dark_flank_-1
f 293 294 295
f 298 300 299
f 293 295 296
f 298 301 300
f 293 296 297
f 298 302 301
f 293 298 299
f 293 299 294
f 294 299 300
f 294 300 295
f 295 300 301
f 295 301 296
f 296 301 302
f 296 302 297
f 297 302 298
f 297 298 293
o mark_dark_flank_1
g mark_dark_flank_1
f 303 304 305
f 308 310 309
f 303 305 306
f 308 311 310
f 303 306 307
f 308 312 311
f 303 308 309
f 303 309 304
f 304 309 310
f 304 310 305
f 305 310 311
f 305 311 306
f 306 311 312
f 306 312 307
f 307 312 308
f 307 308 303
