# 3D Printer Online angular low-poly cat collectible
v 0.241800 0.770000 -0.780000
v 0.170978 0.952009 -0.780000
v 0.000000 1.027400 -0.780000
v -0.170978 0.952009 -0.780000
v -0.241800 0.770000 -0.780000
v -0.170978 0.587991 -0.780000
v -0.000000 0.512600 -0.780000
v 0.170978 0.587991 -0.780000
v 0.310000 0.780000 -0.429000
v 0.219203 1.013345 -0.429000
v 0.000000 1.110000 -0.429000
v -0.219203 1.013345 -0.429000
v -0.310000 0.780000 -0.429000
v -0.219203 0.546655 -0.429000
v -0.000000 0.450000 -0.429000
v 0.219203 0.546655 -0.429000
v 0.297600 0.805000 -0.050000
v 0.210435 1.024345 -0.050000
v 0.000000 1.115200 -0.050000
v -0.210435 1.024345 -0.050000
v -0.297600 0.805000 -0.050000
v -0.210435 0.585655 -0.050000
v -0.000000 0.494800 -0.050000
v 0.210435 0.585655 -0.050000
v 0.254200 0.820000 0.351000
v 0.179747 1.030011 0.351000
v 0.000000 1.117000 0.351000
v -0.179747 1.030011 0.351000
v -0.254200 0.820000 0.351000
v -0.179747 0.609989 0.351000
v -0.000000 0.523000 0.351000
v 0.179747 0.609989 0.351000
v 0.204600 0.850000 0.561600
v 0.144674 1.027342 0.561600
v 0.000000 1.100800 0.561600
v -0.144674 1.027342 0.561600
v -0.204600 0.850000 0.561600
v -0.144674 0.672658 0.561600
v -0.000000 0.599200 0.561600
v 0.144674 0.672658 0.561600
v 0.000000 0.770000 -0.780000
v 0.000000 0.850000 0.561600
v 0.167400 0.900000 0.374400
v 0.118370 1.044674 0.374400
v 0.000000 1.104600 0.374400
v -0.118370 1.044674 0.374400
v -0.167400 0.900000 0.374400
v -0.118370 0.755326 0.374400
v -0.000000 0.695400 0.374400
v 0.118370 0.755326 0.374400
v 0.201600 1.030000 0.592800
v 0.142553 1.167462 0.592800
v 0.000000 1.224400 0.592800
v -0.142553 1.167462 0.592800
v -0.201600 1.030000 0.592800
v -0.142553 0.892538 0.592800
v -0.000000 0.835600 0.592800
v 0.142553 0.892538 0.592800
v 0.218400 1.130000 0.686400
v 0.154432 1.286553 0.686400
v 0.000000 1.351400 0.686400
v -0.154432 1.286553 0.686400
v -0.218400 1.130000 0.686400
v -0.154432 0.973447 0.686400
v -0.000000 0.908600 0.686400
v 0.154432 0.973447 0.686400
v 0.000000 0.900000 0.374400
v 0.000000 1.130000 0.686400
v 0.235200 1.160000 0.546000
v 0.166312 1.316553 0.546000
v 0.000000 1.381400 0.546000
v -0.166312 1.316553 0.546000
v -0.235200 1.160000 0.546000
v -0.166312 1.003447 0.546000
v -0.000000 0.938600 0.546000
v 0.166312 1.003447 0.546000
v 0.280000 1.220000 0.686400
v 0.197990 1.410919 0.686400
v 0.000000 1.490000 0.686400
v -0.197990 1.410919 0.686400
v -0.280000 1.220000 0.686400
v -0.197990 1.029081 0.686400
v -0.000000 0.950000 0.686400
v 0.197990 1.029081 0.686400
v 0.246400 1.200000 0.980000
v 0.174231 1.364190 0.980000
v 0.000000 1.432200 0.980000
v -0.174231 1.364190 0.980000
v -0.246400 1.200000 0.980000
v -0.174231 1.035810 0.980000
v -0.000000 0.967800 0.980000
v 0.174231 1.035810 0.980000
v 0.159600 1.130000 1.160000
v 0.112854 1.235005 1.160000
v 0.000000 1.278500 1.160000
v -0.112854 1.235005 1.160000
v -0.159600 1.130000 1.160000
v -0.112854 1.024995 1.160000
v -0.000000 0.981500 1.160000
v 0.112854 1.024995 1.160000
v 0.000000 1.160000 0.546000
v 0.000000 1.130000 1.160000
v 0.156800 1.100000 1.090000
v 0.078400 1.212237 1.090000
v -0.078400 1.212237 1.090000
v -0.156800 1.100000 1.090000
v -0.078400 0.987763 1.090000
v 0.078400 0.987763 1.090000
v 0.117600 1.080000 1.250000
v 0.058800 1.164178 1.250000
v -0.058800 1.164178 1.250000
v -0.117600 1.080000 1.250000
v -0.058800 0.995822 1.250000
v 0.058800 0.995822 1.250000
v 0.000000 1.100000 1.090000
v 0.000000 1.080000 1.250000
v -0.271600 1.350000 0.950000
v -0.036400 1.350000 0.950000
v -0.057568 1.390000 0.750000
v -0.250432 1.390000 0.750000
v -0.154000 1.730000 0.850000
v 0.036400 1.350000 0.950000
v 0.271600 1.350000 0.950000
v 0.250432 1.390000 0.750000
v 0.057568 1.390000 0.750000
v 0.154000 1.730000 0.850000
v -0.161200 0.635120 0.381617
v -0.205421 0.631062 0.349740
v -0.188530 0.625536 0.298045
v -0.133870 0.626179 0.297974
v -0.116979 0.632102 0.349624
v -0.157976 0.361625 0.400967
v -0.191881 0.359949 0.376391
v -0.178931 0.357238 0.336625
v -0.137021 0.357238 0.336625
v -0.124071 0.359949 0.376391
v -0.161200 0.190000 0.394850
v -0.189204 0.190534 0.374501
v -0.178507 0.190330 0.341574
v -0.143893 0.189670 0.341574
v -0.133196 0.189466 0.374501
v -0.161200 0.630000 0.335400
v -0.161200 0.190000 0.365400
v -0.207700 0.007400 0.275400
v -0.114700 0.007400 0.275400
v -0.114700 0.117400 0.275400
v -0.207700 0.117400 0.275400
v -0.207700 0.007400 0.505400
v -0.114700 0.007400 0.505400
v -0.114700 0.117400 0.505400
v -0.207700 0.117400 0.505400
v -0.161200 0.621557 -0.328673
v -0.205417 0.628155 -0.360129
v -0.188528 0.637302 -0.411307
v -0.133872 0.636359 -0.411481
v -0.116983 0.626627 -0.360411
v -0.166036 0.356775 -0.388833
v -0.199941 0.358451 -0.413409
v -0.186991 0.361162 -0.453175
v -0.145081 0.361162 -0.453175
v -0.132131 0.358451 -0.413409
v -0.161200 0.193457 -0.375154
v -0.189197 0.190279 -0.395269
v -0.178503 0.186715 -0.428003
v -0.143897 0.187691 -0.428118
v -0.133203 0.191857 -0.395456
v -0.161200 0.630000 -0.374400
v -0.161200 0.190000 -0.404400
v -0.207700 0.007400 -0.434400
v -0.114700 0.007400 -0.434400
v -0.114700 0.117400 -0.434400
v -0.207700 0.117400 -0.434400
v -0.207700 0.007400 -0.204400
v -0.114700 0.007400 -0.204400
v -0.114700 0.117400 -0.204400
v -0.207700 0.117400 -0.204400
v 0.161200 0.635120 0.381617
v 0.116979 0.632102 0.349624
v 0.133870 0.626179 0.297974
v 0.188530 0.625536 0.298045
v 0.205421 0.631062 0.349740
v 0.157976 0.361625 0.400967
v 0.124071 0.359949 0.376391
v 0.137021 0.357238 0.336625
v 0.178931 0.357238 0.336625
v 0.191881 0.359949 0.376391
v 0.161200 0.190000 0.394850
v 0.133196 0.189466 0.374501
v 0.143893 0.189670 0.341574
v 0.178507 0.190330 0.341574
v 0.189204 0.190534 0.374501
v 0.161200 0.630000 0.335400
v 0.161200 0.190000 0.365400
v 0.114700 0.007400 0.275400
v 0.207700 0.007400 0.275400
v 0.207700 0.117400 0.275400
v 0.114700 0.117400 0.275400
v 0.114700 0.007400 0.505400
v 0.207700 0.007400 0.505400
v 0.207700 0.117400 0.505400
v 0.114700 0.117400 0.505400
v 0.161200 0.621557 -0.328673
v 0.116983 0.626627 -0.360411
v 0.133872 0.636359 -0.411481
v 0.188528 0.637302 -0.411307
v 0.205417 0.628155 -0.360129
v 0.166036 0.356775 -0.388833
v 0.132131 0.358451 -0.413409
v 0.145081 0.361162 -0.453175
v 0.186991 0.361162 -0.453175
v 0.199941 0.358451 -0.413409
v 0.161200 0.193457 -0.375154
v 0.133203 0.191857 -0.395456
v 0.143897 0.187691 -0.428118
v 0.178503 0.186715 -0.428003
v 0.189197 0.190279 -0.395269
v 0.161200 0.630000 -0.374400
v 0.161200 0.190000 -0.404400
v 0.114700 0.007400 -0.434400
v 0.207700 0.007400 -0.434400
v 0.207700 0.117400 -0.434400
v 0.114700 0.117400 -0.434400
v 0.114700 0.007400 -0.204400
v 0.207700 0.007400 -0.204400
v 0.207700 0.117400 -0.204400
v 0.114700 0.117400 -0.204400
v -0.032454 0.780000 -0.570057
v -0.062329 0.735727 -0.583189
v -0.116675 0.735727 -0.574731
v -0.141146 0.780000 -0.553143
v -0.111271 0.824273 -0.540011
v -0.056925 0.824273 -0.548469
v -0.098525 0.940000 -0.965730
v -0.126311 0.902939 -0.986098
v -0.176585 0.902939 -0.980368
v -0.199075 0.940000 -0.954270
v -0.171289 0.977061 -0.933902
v -0.121015 0.977061 -0.939632
v -0.112666 1.160000 -1.153052
v -0.129181 1.136436 -1.184871
v -0.171515 1.136436 -1.191819
v -0.197334 1.160000 -1.166948
v -0.180819 1.183564 -1.135129
v -0.138485 1.183564 -1.128181
v -0.074513 1.360000 -1.271346
v -0.063034 1.343754 -1.299042
v -0.081521 1.343754 -1.327696
v -0.111487 1.360000 -1.328654
v -0.122966 1.376246 -1.300958
v -0.104479 1.376246 -1.272304
v -0.010431 1.440000 -1.235748
v 0.007806 1.422062 -1.242273
v 0.018237 1.422062 -1.266525
v 0.010431 1.440000 -1.284252
v -0.007806 1.457938 -1.277727
v -0.018237 1.457938 -1.253475
v -0.086800 0.780000 -0.561600
v 0.000000 1.440000 -1.260000
v -0.067200 1.240000 1.273000
v -0.086548 1.257975 1.273000
v -0.117852 1.251109 1.273000
v -0.117852 1.228891 1.273000
v -0.086548 1.222025 1.273000
v -0.067200 1.240000 1.257000
v -0.086548 1.257975 1.257000
v -0.117852 1.251109 1.257000
v -0.117852 1.228891 1.257000
v -0.086548 1.222025 1.257000
v 0.123200 1.240000 1.273000
v 0.103852 1.257975 1.273000
v 0.072548 1.251109 1.273000
v 0.072548 1.228891 1.273000
v 0.103852 1.222025 1.273000
v 0.123200 1.240000 1.257000
v 0.103852 1.257975 1.257000
v 0.072548 1.251109 1.257000
v 0.072548 1.228891 1.257000
v 0.103852 1.222025 1.257000
v 0.030800 1.075000 1.286000
v 0.000000 1.093900 1.286000
v -0.030800 1.075000 1.286000
v -0.000000 1.056100 1.286000
v 0.030800 1.075000 1.268000
v 0.000000 1.093900 1.268000
v -0.030800 1.075000 1.268000
v -0.000000 1.056100 1.268000
v -0.308000 0.830850 -0.420000
v -0.308000 0.820000 -0.320000
v -0.308000 0.809150 -0.420000
v -0.308000 0.820000 -0.520000
v -0.324000 0.830850 -0.420000
v -0.324000 0.820000 -0.320000
v -0.324000 0.809150 -0.420000
v -0.324000 0.820000 -0.520000
v -0.308000 0.890850 -0.160000
v -0.308000 0.880000 -0.070000
v -0.308000 0.869150 -0.160000
v -0.308000 0.880000 -0.250000
v -0.324000 0.890850 -0.160000
v -0.324000 0.880000 -0.070000
v -0.324000 0.869150 -0.160000
v -0.324000 0.880000 -0.250000
v -0.308000 0.910850 0.100000
v -0.308000 0.900000 0.180000
v -0.308000 0.889150 0.100000
v -0.308000 0.900000 0.020000
v -0.324000 0.910850 0.100000
v -0.324000 0.900000 0.180000
v -0.324000 0.889150 0.100000
v -0.324000 0.900000 0.020000
v -0.308000 0.950850 0.350000
v -0.308000 0.940000 0.420000
v -0.308000 0.929150 0.350000
v -0.308000 0.940000 0.280000
v -0.324000 0.950850 0.350000
v -0.324000 0.940000 0.420000
v -0.324000 0.929150 0.350000
v -0.324000 0.940000 0.280000
v 0.324000 0.830850 -0.420000
v 0.324000 0.820000 -0.320000
v 0.324000 0.809150 -0.420000
v 0.324000 0.820000 -0.520000
v 0.308000 0.830850 -0.420000
v 0.308000 0.820000 -0.320000
v 0.308000 0.809150 -0.420000
v 0.308000 0.820000 -0.520000
v 0.324000 0.890850 -0.160000
v 0.324000 0.880000 -0.070000
v 0.324000 0.869150 -0.160000
v 0.324000 0.880000 -0.250000
v 0.308000 0.890850 -0.160000
v 0.308000 0.880000 -0.070000
v 0.308000 0.869150 -0.160000
v 0.308000 0.880000 -0.250000
v 0.324000 0.910850 0.100000
v 0.324000 0.900000 0.180000
v 0.324000 0.889150 0.100000
v 0.324000 0.900000 0.020000
v 0.308000 0.910850 0.100000
v 0.308000 0.900000 0.180000
v 0.308000 0.889150 0.100000
v 0.308000 0.900000 0.020000
v 0.324000 0.950850 0.350000
v 0.324000 0.940000 0.420000
v 0.324000 0.929150 0.350000
v 0.324000 0.940000 0.280000
v 0.308000 0.950850 0.350000
v 0.308000 0.940000 0.420000
v 0.308000 0.929150 0.350000
v 0.308000 0.940000 0.280000
v 0.028000 1.360000 1.270000
v 0.000000 1.397800 1.270000
v -0.028000 1.360000 1.270000
v -0.000000 1.322200 1.270000
v 0.028000 1.360000 1.250000
v 0.000000 1.397800 1.250000
v -0.028000 1.360000 1.250000
v -0.000000 1.322200 1.250000
o body
g body
f 1 2 10
f 1 10 9
f 2 3 11
f 2 11 10
f 3 4 12
f 3 12 11
f 4 5 13
f 4 13 12
f 5 6 14
f 5 14 13
f 6 7 15
f 6 15 14
f 7 8 16
f 7 16 15
f 8 1 9
f 8 9 16
f 9 10 18
f 9 18 17
f 10 11 19
f 10 19 18
f 11 12 20
f 11 20 19
f 12 13 21
f 12 21 20
f 13 14 22
f 13 22 21
f 14 15 23
f 14 23 22
f 15 16 24
f 15 24 23
f 16 9 17
f 16 17 24
f 17 18 26
f 17 26 25
f 18 19 27
f 18 27 26
f 19 20 28
f 19 28 27
f 20 21 29
f 20 29 28
f 21 22 30
f 21 30 29
f 22 23 31
f 22 31 30
f 23 24 32
f 23 32 31
f 24 17 25
f 24 25 32
f 25 26 34
f 25 34 33
f 26 27 35
f 26 35 34
f 27 28 36
f 27 36 35
f 28 29 37
f 28 37 36
f 29 30 38
f 29 38 37
f 30 31 39
f 30 39 38
f 31 32 40
f 31 40 39
f 32 25 33
f 32 33 40
f 41 2 1
f 42 33 34
f 41 3 2
f 42 34 35
f 41 4 3
f 42 35 36
f 41 5 4
f 42 36 37
f 41 6 5
f 42 37 38
f 41 7 6
f 42 38 39
f 41 8 7
f 42 39 40
f 41 1 8
f 42 40 33
o neck
g neck
f 43 44 52
f 43 52 51
f 44 45 53
f 44 53 52
f 45 46 54
f 45 54 53
f 46 47 55
f 46 55 54
f 47 48 56
f 47 56 55
f 48 49 57
f 48 57 56
f 49 50 58
f 49 58 57
f 50 43 51
f 50 51 58
f 51 52 60
f 51 60 59
f 52 53 61
f 52 61 60
f 53 54 62
f 53 62 61
f 54 55 63
f 54 63 62
f 55 56 64
f 55 64 63
f 56 57 65
f 56 65 64
f 57 58 66
f 57 66 65
f 58 51 59
f 58 59 66
f 67 44 43
f 68 59 60
f 67 45 44
f 68 60 61
f 67 46 45
f 68 61 62
f 67 47 46
f 68 62 63
f 67 48 47
f 68 63 64
f 67 49 48
f 68 64 65
f 67 50 49
f 68 65 66
f 67 43 50
f 68 66 59
o head
g head
f 69 70 78
f 69 78 77
f 70 71 79
f 70 79 78
f 71 72 80
f 71 80 79
f 72 73 81
f 72 81 80
f 73 74 82
f 73 82 81
f 74 75 83
f 74 83 82
f 75 76 84
f 75 84 83
f 76 69 77
f 76 77 84
f 77 78 86
f 77 86 85
f 78 79 87
f 78 87 86
f 79 80 88
f 79 88 87
f 80 81 89
f 80 89 88
f 81 82 90
f 81 90 89
f 82 83 91
f 82 91 90
f 83 84 92
f 83 92 91
f 84 77 85
f 84 85 92
f 85 86 94
f 85 94 93
f 86 87 95
f 86 95 94
f 87 88 96
f 87 96 95
f 88 89 97
f 88 97 96
f 89 90 98
f 89 98 97
f 90 91 99
f 90 99 98
f 91 92 100
f 91 100 99
f 92 85 93
f 92 93 100
f 101 70 69
f 102 93 94
f 101 71 70
f 102 94 95
f 101 72 71
f 102 95 96
f 101 73 72
f 102 96 97
f 101 74 73
f 102 97 98
f 101 75 74
f 102 98 99
f 101 76 75
f 102 99 100
f 101 69 76
f 102 100 93
o muzzle
g muzzle
f 103 104 110
f 103 110 109
f 104 105 111
f 104 111 110
f 105 106 112
f 105 112 111
f 106 107 113
f 106 113 112
f 107 108 114
f 107 114 113
f 108 103 109
f 108 109 114
f 115 104 103
f 116 109 110
f 115 105 104
f 116 110 111
f 115 106 105
f 116 111 112
f 115 107 106
f 116 112 113
f 115 108 107
f 116 113 114
f 115 103 108
f 116 114 109
o ear_left
g ear_left
f 117 118 119
f 117 119 120
f 117 121 118
f 118 121 119
f 119 121 120
f 120 121 117
o ear_right
g ear_right
f 122 123 124
f 122 124 125
f 122 126 123
f 123 126 124
f 124 126 125
f 125 126 122
o leg_front_L
g leg_front_L
f 127 128 133
f 127 133 132
f 128 129 134
f 128 134 133
f 129 130 135
f 129 135 134
f 130 131 136
f 130 136 135
f 131 127 132
f 131 132 136
f 132 133 138
f 132 138 137
f 133 134 139
f 133 139 138
f 134 135 140
f 134 140 139
f 135 136 141
f 135 141 140
f 136 132 137
f 136 137 141
f 142 128 127
f 143 137 138
f 142 129 128
f 143 138 139
f 142 130 129
f 143 139 140
f 142 131 130
f 143 140 141
f 142 127 131
f 143 141 137
o paw_front_L
g paw_front_L
f 144 145 146
f 144 146 147
f 148 151 150
f 148 150 149
f 144 148 149
f 144 149 145
f 147 146 150
f 147 150 151
f 145 149 150
f 145 150 146
f 144 147 151
f 144 151 148
o leg_rear_L
g leg_rear_L
f 152 153 158
f 152 158 157
f 153 154 159
f 153 159 158
f 154 155 160
f 154 160 159
f 155 156 161
f 155 161 160
f 156 152 157
f 156 157 161
f 157 158 163
f 157 163 162
f 158 159 164
f 158 164 163
f 159 160 165
f 159 165 164
f 160 161 166
f 160 166 165
f 161 157 162
f 161 162 166
f 167 153 152
f 168 162 163
f 167 154 153
f 168 163 164
f 167 155 154
f 168 164 165
f 167 156 155
f 168 165 166
f 167 152 156
f 168 166 162
o paw_rear_L
g paw_rear_L
f 169 170 171
f 169 171 172
f 173 176 175
f 173 175 174
f 169 173 174
f 169 174 170
f 172 171 175
f 172 175 176
f 170 174 175
f 170 175 171
f 169 172 176
f 169 176 173
o leg_front_R
g leg_front_R
f 177 178 183
f 177 183 182
f 178 179 184
f 178 184 183
f 179 180 185
f 179 185 184
f 180 181 186
f 180 186 185
f 181 177 182
f 181 182 186
f 182 183 188
f 182 188 187
f 183 184 189
f 183 189 188
f 184 185 190
f 184 190 189
f 185 186 191
f 185 191 190
f 186 182 187
f 186 187 191
f 192 178 177
f 193 187 188
f 192 179 178
f 193 188 189
f 192 180 179
f 193 189 190
f 192 181 180
f 193 190 191
f 192 177 181
f 193 191 187
o paw_front_R
g paw_front_R
f 194 195 196
f 194 196 197
f 198 201 200
f 198 200 199
f 194 198 199
f 194 199 195
f 197 196 200
f 197 200 201
f 195 199 200
f 195 200 196
f 194 197 201
f 194 201 198
o leg_rear_R
g leg_rear_R
f 202 203 208
f 202 208 207
f 203 204 209
f 203 209 208
f 204 205 210
f 204 210 209
f 205 206 211
f 205 211 210
f 206 202 207
f 206 207 211
f 207 208 213
f 207 213 212
f 208 209 214
f 208 214 213
f 209 210 215
f 209 215 214
f 210 211 216
f 210 216 215
f 211 207 212
f 211 212 216
f 217 203 202
f 218 212 213
f 217 204 203
f 218 213 214
f 217 205 204
f 218 214 215
f 217 206 205
f 218 215 216
f 217 202 206
f 218 216 212
o paw_rear_R
g paw_rear_R
f 219 220 221
f 219 221 222
f 223 226 225
f 223 225 224
f 219 223 224
f 219 224 220
f 222 221 225
f 222 225 226
f 220 224 225
f 220 225 221
f 219 222 226
f 219 226 223
o tail
g tail
f 227 228 234
f 227 234 233
f 228 229 235
f 228 235 234
f 229 230 236
f 229 236 235
f 230 231 237
f 230 237 236
f 231 232 238
f 231 238 237
f 232 227 233
f 232 233 238
f 233 234 240
f 233 240 239
f 234 235 241
f 234 241 240
f 235 236 242
f 235 242 241
f 236 237 243
f 236 243 242
f 237 238 244
f 237 244 243
f 238 233 239
f 238 239 244
f 239 240 246
f 239 246 245
f 240 241 247
f 240 247 246
f 241 242 248
f 241 248 247
f 242 243 249
f 242 249 248
f 243 244 250
f 243 250 249
f 244 239 245
f 244 245 250
f 245 246 252
f 245 252 251
f 246 247 253
f 246 253 252
f 247 248 254
f 247 254 253
f 248 249 255
f 248 255 254
f 249 250 256
f 249 256 255
f 250 245 251
f 250 251 256
f 257 228 227
f 258 251 252
f 257 229 228
f 258 252 253
f 257 230 229
f 258 253 254
f 257 231 230
f 258 254 255
f 257 232 231
f 258 255 256
f 257 227 232
f 258 256 251
o detail_eye_left
g detail_eye_left
f 259 260 261
f 264 266 265
f 259 261 262
f 264 267 266
f 259 262 263
f 264 268 267
f 259 264 265
f 259 265 260
f 260 265 266
f 260 266 261
f 261 266 267
f 261 267 262
f 262 267 268
f 262 268 263
f 263 268 264
f 263 264 259
o detail_eye_right
g detail_eye_right
f 269 270 271
f 274 276 275
f 269 271 272
f 274 277 276
f 269 272 273
f 274 278 277
f 269 274 275
f 269 275 270
f 270 275 276
f 270 276 271
f 271 276 277
f 271 277 272
f 272 277 278
f 272 278 273
f 273 278 274
f 273 274 269
o detail_nose
g detail_nose
f 279 280 281
f 283 285 284
f 279 281 282
f 283 286 285
f 279 283 284
f 279 284 280
f 280 284 285
f 280 285 281
f 281 285 286
f 281 286 282
f 282 286 283
f 282 283 279
o mark_dark_stripe_-1_0
g mark_dark_stripe_-1_0
f 287 288 289
f 291 293 292
f 287 289 290
f 291 294 293
f 287 291 292
f 287 292 288
f 288 292 293
f 288 293 289
f 289 293 294
f 289 294 290
f 290 294 291
f 290 291 287
o mark_dark_stripe_-1_1
g mark_dark_stripe_-1_1
f 295 296 297
f 299 301 300
f 295 297 298
f 299 302 301
f 295 299 300
f 295 300 296
f 296 300 301
f 296 301 297
f 297 301 302
f 297 302 298
f 298 302 299
f 298 299 295
o mark_dark_stripe_-1_2
g mark_dark_stripe_-1_2
f 303 304 305
f 307 309 308
f 303 305 306
f 307 310 309
f 303 307 308
f 303 308 304
f 304 308 309
f 304 309 305
f 305 309 310
f 305 310 306
f 306 310 307
f 306 307 303
o mark_dark_stripe_-1_3
g mark_dark_stripe_-1_3
f 311 312 313
f 315 317 316
f 311 313 314
f 315 318 317
f 311 315 316
f 311 316 312
f 312 316 317
f 312 317 313
f 313 317 318
f 313 318 314
f 314 318 315
f 314 315 311
o mark_dark_stripe_1_0
g mark_dark_stripe_1_0
f 319 320 321
f 323 325 324
f 319 321 322
f 323 326 325
f 319 323 324
f 319 324 320
f 320 324 325
f 320 325 321
f 321 325 326
f 321 326 322
f 322 326 323
f 322 323 319
o mark_dark_stripe_1_1
g mark_dark_stripe_1_1
f 327 328 329
f 331 333 332
f 327 329 330
f 331 334 333
f 327 331 332
f 327 332 328
f 328 332 333
f 328 333 329
f 329 333 334
f 329 334 330
f 330 334 331
f 330 331 327
o mark_dark_stripe_1_2
g mark_dark_stripe_1_2
f 335 336 337
f 339 341 340
f 335 337 338
f 339 342 341
f 335 339 340
f 335 340 336
f 336 340 341
f 336 341 337
f 337 341 342
f 337 342 338
f 338 342 339
f 338 339 335
o mark_dark_stripe_1_3
g mark_dark_stripe_1_3
f 343 344 345
f 347 349 348
f 343 345 346
f 347 350 349
f 343 347 348
f 343 348 344
f 344 348 349
f 344 349 345
f 345 349 350
f 345 350 346
f 346 350 347
f 346 347 343
o mark_dark_forehead
g mark_dark_forehead
f 351 352 353
f 355 357 356
f 351 353 354
f 355 358 357
f 351 355 356
f 351 356 352
f 352 356 357
f 352 357 353
f 353 357 358
f 353 358 354
f 354 358 355
f 354 355 351
