# 3D Printer Online 4.1 refined collectible cat silhouette
v 0.160024 0.803076 -0.826936
v 0.113419 0.937523 -0.826936
v 0.000000 0.993213 -0.826936
v -0.113419 0.937523 -0.826936
v -0.160024 0.803076 -0.826936
v -0.112276 0.668629 -0.826936
v 0.000000 0.612938 -0.826936
v 0.112276 0.668629 -0.826936
v 0.218384 0.818451 -0.495736
v 0.154646 1.010518 -0.495736
v 0.000000 1.090076 -0.495736
v -0.154646 1.010518 -0.495736
v -0.218384 0.818451 -0.495736
v -0.152711 0.626383 -0.495736
v 0.000000 0.546826 -0.495736
v 0.152711 0.626383 -0.495736
v 0.206442 0.844076 -0.098296
v 0.145977 1.032303 -0.098296
v 0.000000 1.110268 -0.098296
v -0.145977 1.032303 -0.098296
v -0.206442 0.844076 -0.098296
v -0.144398 0.655849 -0.098296
v 0.000000 0.577883 -0.098296
v 0.144398 0.655849 -0.098296
v 0.193358 0.881156 0.315704
v 0.136725 1.059779 0.315704
v 0.000000 1.133767 0.315704
v -0.136725 1.059779 0.315704
v -0.193358 0.881156 0.315704
v -0.135483 0.685953 0.315704
v 0.000000 0.611965 0.315704
v 0.135483 0.685953 0.315704
v 0.149365 0.937531 0.514424
v 0.105617 1.087344 0.514424
v 0.000000 1.149399 0.514424
v -0.105617 1.087344 0.514424
v -0.149365 0.937531 0.514424
v -0.112945 0.771138 0.514424
v 0.000000 0.709083 0.514424
v 0.112945 0.771138 0.514424
v 0.145425 1.040031 0.605504
v 0.102830 1.150923 0.605504
v 0.000000 1.196856 0.605504
v -0.102830 1.150923 0.605504
v -0.145425 1.040031 0.605504
v -0.102830 0.929140 0.605504
v 0.000000 0.883206 0.605504
v 0.102830 0.929140 0.605504
v 0.173382 1.156701 0.680024
v 0.122599 1.293685 0.680024
v 0.000000 1.350426 0.680024
v -0.122599 1.293685 0.680024
v -0.173382 1.156701 0.680024
v -0.122599 1.019717 0.680024
v 0.000000 0.962976 0.680024
v 0.122599 1.019717 0.680024
v 0.197641 1.248951 0.771104
v 0.139754 1.412027 0.771104
v 0.000000 1.479576 0.771104
v -0.139754 1.412027 0.771104
v -0.197641 1.248951 0.771104
v -0.139754 1.085874 0.771104
v 0.000000 1.018326 0.771104
v 0.139754 1.085874 0.771104
v 0.171200 1.224555 1.005014
v 0.121056 1.361539 1.005014
v 0.000000 1.418280 1.005014
v -0.121056 1.361539 1.005014
v -0.171200 1.224555 1.005014
v -0.121056 1.087571 1.005014
v 0.000000 1.030830 1.005014
v 0.121056 1.087571 1.005014
v 0.096931 1.131844 1.201664
v 0.068540 1.206859 1.201664
v 0.000000 1.237931 1.201664
v -0.068540 1.206859 1.201664
v -0.096931 1.131844 1.201664
v -0.068540 1.056828 1.201664
v 0.000000 1.025756 1.201664
v 0.068540 1.056828 1.201664
v 0.000000 0.803076 -0.826936
v 0.000000 1.131844 1.201664
v -0.180101 1.317933 0.984314
v -0.031322 1.317933 0.984314
v -0.048087 1.356576 0.735914
v -0.165108 1.356576 0.735914
v -0.107052 1.761451 0.860114
v 0.031322 1.317933 0.984314
v 0.180101 1.317933 0.984314
v 0.165108 1.356576 0.735914
v 0.048087 1.356576 0.735914
v 0.107052 1.761451 0.860114
v -0.116367 0.847291 0.374043
v -0.161995 0.846828 0.344855
v -0.161976 0.844818 0.286516
v -0.116126 0.843271 0.257365
v -0.070720 0.843734 0.286553
v -0.070729 0.845745 0.344892
v -0.117078 0.594344 0.365309
v -0.148956 0.593554 0.344650
v -0.148944 0.592161 0.303326
v -0.117059 0.591558 0.282660
v -0.085184 0.592348 0.303318
v -0.085190 0.593741 0.344643
v -0.112001 0.348169 0.362642
v -0.135102 0.347410 0.347459
v -0.135093 0.346193 0.317081
v -0.111984 0.345733 0.301886
v -0.088885 0.346492 0.317069
v -0.088891 0.347708 0.347448
v -0.112864 0.152506 0.364646
v -0.130422 0.149880 0.353401
v -0.130501 0.144450 0.330955
v -0.113001 0.141645 0.319754
v -0.095432 0.144271 0.330999
v -0.095374 0.149702 0.353445
v -0.140628 0.078401 0.398504
v -0.127436 0.061965 0.378064
v -0.100552 0.061965 0.378064
v -0.086953 0.078401 0.398504
v -0.100191 0.094837 0.418944
v -0.126980 0.094837 0.418944
v -0.116354 0.845281 0.315704
v -0.113790 0.078401 0.398504
v -0.113236 0.827570 -0.296613
v -0.158174 0.828677 -0.325784
v -0.159232 0.829808 -0.384146
v -0.114756 0.829831 -0.413338
v -0.069523 0.828724 -0.384168
v -0.069060 0.827594 -0.325805
v -0.114215 0.592167 -0.318292
v -0.145664 0.592465 -0.338964
v -0.146354 0.593249 -0.380305
v -0.115299 0.593735 -0.400974
v -0.083702 0.593437 -0.380302
v -0.083308 0.592653 -0.338961
v -0.111988 0.346266 -0.333896
v -0.135095 0.346459 -0.349097
v -0.135100 0.347145 -0.379492
v -0.111997 0.347636 -0.394686
v -0.088890 0.347443 -0.379485
v -0.088886 0.346757 -0.349090
v -0.112972 0.143961 -0.346989
v -0.130484 0.145611 -0.358421
v -0.130439 0.148726 -0.381312
v -0.112893 0.150191 -0.392771
v -0.095386 0.148541 -0.381338
v -0.095419 0.145426 -0.358447
v -0.113946 0.065892 -0.373896
v -0.137125 0.072146 -0.387723
v -0.136938 0.084655 -0.415378
v -0.113635 0.090910 -0.429206
v -0.090487 0.084655 -0.415378
v -0.090611 0.072146 -0.387723
v -0.113996 0.828701 -0.354976
v -0.113790 0.078401 -0.401551
v 0.116367 0.847291 0.374043
v 0.070729 0.845745 0.344892
v 0.070720 0.843734 0.286553
v 0.116126 0.843271 0.257365
v 0.161976 0.844818 0.286516
v 0.161995 0.846828 0.344855
v 0.117078 0.594344 0.365309
v 0.085190 0.593741 0.344643
v 0.085184 0.592348 0.303318
v 0.117059 0.591558 0.282660
v 0.148944 0.592161 0.303326
v 0.148956 0.593554 0.344650
v 0.112001 0.348169 0.362642
v 0.088891 0.347708 0.347448
v 0.088885 0.346492 0.317069
v 0.111984 0.345733 0.301886
v 0.135093 0.346193 0.317081
v 0.135102 0.347410 0.347459
v 0.112864 0.152506 0.364646
v 0.095374 0.149702 0.353445
v 0.095432 0.144271 0.330999
v 0.113001 0.141645 0.319754
v 0.130501 0.144450 0.330955
v 0.130422 0.149880 0.353401
v 0.086953 0.078401 0.398504
v 0.100551 0.061965 0.378064
v 0.127436 0.061965 0.378064
v 0.140628 0.078401 0.398504
v 0.126981 0.094837 0.418944
v 0.100191 0.094837 0.418944
v 0.116354 0.845281 0.315704
v 0.113790 0.078401 0.398504
v 0.113236 0.827570 -0.296613
v 0.069060 0.827594 -0.325805
v 0.069523 0.828724 -0.384168
v 0.114756 0.829831 -0.413338
v 0.159232 0.829808 -0.384146
v 0.158174 0.828677 -0.325784
v 0.114215 0.592167 -0.318292
v 0.083308 0.592653 -0.338961
v 0.083702 0.593437 -0.380302
v 0.115299 0.593735 -0.400974
v 0.146354 0.593249 -0.380305
v 0.145664 0.592465 -0.338964
v 0.111988 0.346266 -0.333896
v 0.088886 0.346757 -0.349090
v 0.088890 0.347443 -0.379485
v 0.111997 0.347636 -0.394686
v 0.135100 0.347145 -0.379492
v 0.135095 0.346459 -0.349097
v 0.112972 0.143961 -0.346989
v 0.095419 0.145426 -0.358447
v 0.095386 0.148541 -0.381338
v 0.112893 0.150191 -0.392771
v 0.130439 0.148726 -0.381312
v 0.130484 0.145611 -0.358421
v 0.113946 0.065892 -0.373896
v 0.090611 0.072146 -0.387723
v 0.090487 0.084655 -0.415378
v 0.113635 0.090910 -0.429206
v 0.136938 0.084655 -0.415378
v 0.137125 0.072146 -0.387723
v 0.113996 0.828701 -0.354976
v 0.113790 0.078401 -0.401551
v 0.022686 0.838951 -0.555881
v -0.006883 0.790632 -0.568453
v -0.060146 0.790632 -0.557988
v -0.084160 0.838951 -0.534951
v -0.054548 0.887269 -0.522379
v -0.001192 0.887269 -0.532844
v -0.052495 0.982451 -0.936811
v -0.075095 0.950381 -0.954309
v -0.114884 0.950381 -0.947934
v -0.132074 0.982451 -0.924060
v -0.109474 1.014521 -0.906563
v -0.069685 1.014521 -0.912938
v -0.071781 1.207951 -1.114080
v -0.087023 1.187515 -1.140294
v -0.120710 1.187515 -1.142948
v -0.139155 1.207951 -1.119392
v -0.123913 1.228386 -1.093178
v -0.090226 1.228386 -1.090523
v -0.047524 1.392451 -1.255265
v -0.047930 1.378366 -1.281975
v -0.070718 1.378366 -1.298696
v -0.093100 1.392451 -1.288706
v -0.092694 1.406535 -1.261997
v -0.069906 1.406535 -1.245276
v -0.022427 1.474451 -1.238864
v -0.005977 1.463055 -1.247325
v -0.002250 1.463055 -1.270097
v -0.014973 1.474451 -1.284408
v -0.031423 1.485847 -1.275947
v -0.035150 1.485847 -1.253175
v -0.030762 0.838951 -0.545416
v -0.018700 1.474451 -1.261636
v -0.040858 1.248535 1.223399
v -0.052778 1.262792 1.223399
v -0.072065 1.257346 1.223399
v -0.072065 1.239724 1.223399
v -0.052778 1.234278 1.223399
v -0.041025 1.249211 1.210979
v -0.052994 1.263468 1.210979
v -0.072360 1.258022 1.210979
v -0.072360 1.240400 1.210979
v -0.052994 1.234955 1.210979
v 0.075360 1.248535 1.223399
v 0.063439 1.262792 1.223399
v 0.044152 1.257346 1.223399
v 0.044152 1.239724 1.223399
v 0.063439 1.234278 1.223399
v 0.075668 1.249211 1.210979
v 0.063699 1.263468 1.210979
v 0.044333 1.258022 1.210979
v 0.044333 1.240400 1.210979
v 0.063699 1.234955 1.210979
v 0.018976 1.083746 1.237889
v 0.000000 1.098736 1.237889
v -0.018976 1.083746 1.237889
v 0.000000 1.068755 1.237889
v 0.019054 1.084422 1.225469
v 0.000000 1.099413 1.225469
v -0.019054 1.084422 1.225469
v 0.000000 1.069431 1.225469
v 0.103647 1.171885 1.219259
v 0.051824 1.259766 1.219259
v -0.051824 1.259766 1.219259
v -0.103647 1.171885 1.219259
v -0.051824 1.084005 1.219259
v 0.051824 1.084005 1.219259
v 0.104211 1.172787 1.202699
v 0.052106 1.260668 1.202699
v -0.052106 1.260668 1.202699
v -0.104211 1.172787 1.202699
v -0.052106 1.084907 1.202699
v 0.052106 1.084907 1.202699
v -0.114876 0.161682 0.377804
v -0.115141 0.140966 0.466395
v -0.115569 0.107445 0.432557
v -0.115569 0.107445 0.323052
v -0.115141 0.140966 0.289213
v -0.125739 0.161682 0.377804
v -0.126030 0.140966 0.466395
v -0.126498 0.107445 0.432557
v -0.126498 0.107445 0.323052
v -0.126030 0.140966 0.289213
v -0.114876 0.161682 -0.386026
v -0.115141 0.140966 -0.297435
v -0.115569 0.107445 -0.331273
v -0.115569 0.107445 -0.440778
v -0.115141 0.140966 -0.474617
v -0.125739 0.161682 -0.386026
v -0.126030 0.140966 -0.297435
v -0.126498 0.107445 -0.331273
v -0.126498 0.107445 -0.440778
v -0.126030 0.140966 -0.474617
v 0.125739 0.161682 0.377804
v 0.126030 0.140966 0.466395
v 0.126498 0.107445 0.432557
v 0.126498 0.107445 0.323052
v 0.126030 0.140966 0.289213
v 0.114876 0.161682 0.377804
v 0.115141 0.140966 0.466395
v 0.115569 0.107445 0.432557
v 0.115569 0.107445 0.323052
v 0.115141 0.140966 0.289213
v 0.125739 0.161682 -0.386026
v 0.126030 0.140966 -0.297435
v 0.126498 0.107445 -0.331273
v 0.126498 0.107445 -0.440778
v 0.126030 0.140966 -0.474617
v 0.114876 0.161682 -0.386026
v 0.115141 0.140966 -0.297435
v 0.115569 0.107445 -0.331273
v 0.115569 0.107445 -0.440778
v 0.115141 0.140966 -0.474617
o cat_unified_body
g cat_unified_body
f 1 2 10
f 1 10 9
f 2 3 11
f 2 11 10
f 3 4 12
f 3 12 11
f 4 5 13
f 4 13 12
f 5 6 14
f 5 14 13
f 6 7 15
f 6 15 14
f 7 8 16
f 7 16 15
f 8 1 9
f 8 9 16
f 9 10 18
f 9 18 17
f 10 11 19
f 10 19 18
f 11 12 20
f 11 20 19
f 12 13 21
f 12 21 20
f 13 14 22
f 13 22 21
f 14 15 23
f 14 23 22
f 15 16 24
f 15 24 23
f 16 9 17
f 16 17 24
f 17 18 26
f 17 26 25
f 18 19 27
f 18 27 26
f 19 20 28
f 19 28 27
f 20 21 29
f 20 29 28
f 21 22 30
f 21 30 29
f 22 23 31
f 22 31 30
f 23 24 32
f 23 32 31
f 24 17 25
f 24 25 32
f 25 26 34
f 25 34 33
f 26 27 35
f 26 35 34
f 27 28 36
f 27 36 35
f 28 29 37
f 28 37 36
f 29 30 38
f 29 38 37
f 30 31 39
f 30 39 38
f 31 32 40
f 31 40 39
f 32 25 33
f 32 33 40
f 33 34 42
f 33 42 41
f 34 35 43
f 34 43 42
f 35 36 44
f 35 44 43
f 36 37 45
f 36 45 44
f 37 38 46
f 37 46 45
f 38 39 47
f 38 47 46
f 39 40 48
f 39 48 47
f 40 33 41
f 40 41 48
f 41 42 50
f 41 50 49
f 42 43 51
f 42 51 50
f 43 44 52
f 43 52 51
f 44 45 53
f 44 53 52
f 45 46 54
f 45 54 53
f 46 47 55
f 46 55 54
f 47 48 56
f 47 56 55
f 48 41 49
f 48 49 56
f 49 50 58
f 49 58 57
f 50 51 59
f 50 59 58
f 51 52 60
f 51 60 59
f 52 53 61
f 52 61 60
f 53 54 62
f 53 62 61
f 54 55 63
f 54 63 62
f 55 56 64
f 55 64 63
f 56 49 57
f 56 57 64
f 57 58 66
f 57 66 65
f 58 59 67
f 58 67 66
f 59 60 68
f 59 68 67
f 60 61 69
f 60 69 68
f 61 62 70
f 61 70 69
f 62 63 71
f 62 71 70
f 63 64 72
f 63 72 71
f 64 57 65
f 64 65 72
f 65 66 74
f 65 74 73
f 66 67 75
f 66 75 74
f 67 68 76
f 67 76 75
f 68 69 77
f 68 77 76
f 69 70 78
f 69 78 77
f 70 71 79
f 70 79 78
f 71 72 80
f 71 80 79
f 72 65 73
f 72 73 80
f 81 2 1
f 82 73 74
f 81 3 2
f 82 74 75
f 81 4 3
f 82 75 76
f 81 5 4
f 82 76 77
f 81 6 5
f 82 77 78
f 81 7 6
f 82 78 79
f 81 8 7
f 82 79 80
f 81 1 8
f 82 80 73
o ear_left
g ear_left
f 83 84 85
f 83 85 86
f 83 87 84
f 84 87 85
f 85 87 86
f 86 87 83
o ear_right
g ear_right
f 88 89 90
f 88 90 91
f 88 92 89
f 89 92 90
f 90 92 91
f 91 92 88
o leg_front_L
g leg_front_L
f 93 94 100
f 93 100 99
f 94 95 101
f 94 101 100
f 95 96 102
f 95 102 101
f 96 97 103
f 96 103 102
f 97 98 104
f 97 104 103
f 98 93 99
f 98 99 104
f 99 100 106
f 99 106 105
f 100 101 107
f 100 107 106
f 101 102 108
f 101 108 107
f 102 103 109
f 102 109 108
f 103 104 110
f 103 110 109
f 104 99 105
f 104 105 110
f 105 106 112
f 105 112 111
f 106 107 113
f 106 113 112
f 107 108 114
f 107 114 113
f 108 109 115
f 108 115 114
f 109 110 116
f 109 116 115
f 110 105 111
f 110 111 116
f 111 112 118
f 111 118 117
f 112 113 119
f 112 119 118
f 113 114 120
f 113 120 119
f 114 115 121
f 114 121 120
f 115 116 122
f 115 122 121
f 116 111 117
f 116 117 122
f 123 94 93
f 124 117 118
f 123 95 94
f 124 118 119
f 123 96 95
f 124 119 120
f 123 97 96
f 124 120 121
f 123 98 97
f 124 121 122
f 123 93 98
f 124 122 117
o leg_rear_L
g leg_rear_L
f 125 126 132
f 125 132 131
f 126 127 133
f 126 133 132
f 127 128 134
f 127 134 133
f 128 129 135
f 128 135 134
f 129 130 136
f 129 136 135
f 130 125 131
f 130 131 136
f 131 132 138
f 131 138 137
f 132 133 139
f 132 139 138
f 133 134 140
f 133 140 139
f 134 135 141
f 134 141 140
f 135 136 142
f 135 142 141
f 136 131 137
f 136 137 142
f 137 138 144
f 137 144 143
f 138 139 145
f 138 145 144
f 139 140 146
f 139 146 145
f 140 141 147
f 140 147 146
f 141 142 148
f 141 148 147
f 142 137 143
f 142 143 148
f 143 144 150
f 143 150 149
f 144 145 151
f 144 151 150
f 145 146 152
f 145 152 151
f 146 147 153
f 146 153 152
f 147 148 154
f 147 154 153
f 148 143 149
f 148 149 154
f 155 126 125
f 156 149 150
f 155 127 126
f 156 150 151
f 155 128 127
f 156 151 152
f 155 129 128
f 156 152 153
f 155 130 129
f 156 153 154
f 155 125 130
f 156 154 149
o leg_front_R
g leg_front_R
f 157 158 164
f 157 164 163
f 158 159 165
f 158 165 164
f 159 160 166
f 159 166 165
f 160 161 167
f 160 167 166
f 161 162 168
f 161 168 167
f 162 157 163
f 162 163 168
f 163 164 170
f 163 170 169
f 164 165 171
f 164 171 170
f 165 166 172
f 165 172 171
f 166 167 173
f 166 173 172
f 167 168 174
f 167 174 173
f 168 163 169
f 168 169 174
f 169 170 176
f 169 176 175
f 170 171 177
f 170 177 176
f 171 172 178
f 171 178 177
f 172 173 179
f 172 179 178
f 173 174 180
f 173 180 179
f 174 169 175
f 174 175 180
f 175 176 182
f 175 182 181
f 176 177 183
f 176 183 182
f 177 178 184
f 177 184 183
f 178 179 185
f 178 185 184
f 179 180 186
f 179 186 185
f 180 175 181
f 180 181 186
f 187 158 157
f 188 181 182
f 187 159 158
f 188 182 183
f 187 160 159
f 188 183 184
f 187 161 160
f 188 184 185
f 187 162 161
f 188 185 186
f 187 157 162
f 188 186 181
o leg_rear_R
g leg_rear_R
f 189 190 196
f 189 196 195
f 190 191 197
f 190 197 196
f 191 192 198
f 191 198 197
f 192 193 199
f 192 199 198
f 193 194 200
f 193 200 199
f 194 189 195
f 194 195 200
f 195 196 202
f 195 202 201
f 196 197 203
f 196 203 202
f 197 198 204
f 197 204 203
f 198 199 205
f 198 205 204
f 199 200 206
f 199 206 205
f 200 195 201
f 200 201 206
f 201 202 208
f 201 208 207
f 202 203 209
f 202 209 208
f 203 204 210
f 203 210 209
f 204 205 211
f 204 211 210
f 205 206 212
f 205 212 211
f 206 201 207
f 206 207 212
f 207 208 214
f 207 214 213
f 208 209 215
f 208 215 214
f 209 210 216
f 209 216 215
f 210 211 217
f 210 217 216
f 211 212 218
f 211 218 217
f 212 207 213
f 212 213 218
f 219 190 189
f 220 213 214
f 219 191 190
f 220 214 215
f 219 192 191
f 220 215 216
f 219 193 192
f 220 216 217
f 219 194 193
f 220 217 218
f 219 189 194
f 220 218 213
o tail
g tail
f 221 222 228
f 221 228 227
f 222 223 229
f 222 229 228
f 223 224 230
f 223 230 229
f 224 225 231
f 224 231 230
f 225 226 232
f 225 232 231
f 226 221 227
f 226 227 232
f 227 228 234
f 227 234 233
f 228 229 235
f 228 235 234
f 229 230 236
f 229 236 235
f 230 231 237
f 230 237 236
f 231 232 238
f 231 238 237
f 232 227 233
f 232 233 238
f 233 234 240
f 233 240 239
f 234 235 241
f 234 241 240
f 235 236 242
f 235 242 241
f 236 237 243
f 236 243 242
f 237 238 244
f 237 244 243
f 238 233 239
f 238 239 244
f 239 240 246
f 239 246 245
f 240 241 247
f 240 247 246
f 241 242 248
f 241 248 247
f 242 243 249
f 242 249 248
f 243 244 250
f 243 250 249
f 244 239 245
f 244 245 250
f 251 222 221
f 252 245 246
f 251 223 222
f 252 246 247
f 251 224 223
f 252 247 248
f 251 225 224
f 252 248 249
f 251 226 225
f 252 249 250
f 251 221 226
f 252 250 245
o detail_eye_left
g detail_eye_left
f 253 254 255
f 258 260 259
f 253 255 256
f 258 261 260
f 253 256 257
f 258 262 261
f 253 258 259
f 253 259 254
f 254 259 260
f 254 260 255
f 255 260 261
f 255 261 256
f 256 261 262
f 256 262 257
f 257 262 258
f 257 258 253
o detail_eye_right
g detail_eye_right
f 263 264 265
f 268 270 269
f 263 265 266
f 268 271 270
f 263 266 267
f 268 272 271
f 263 268 269
f 263 269 264
f 264 269 270
f 264 270 265
f 265 270 271
f 265 271 266
f 266 271 272
f 266 272 267
f 267 272 268
f 267 268 263
o detail_nose
g detail_nose
f 273 274 275
f 277 279 278
f 273 275 276
f 277 280 279
f 273 277 278
f 273 278 274
f 274 278 279
f 274 279 275
f 275 279 280
f 275 280 276
f 276 280 277
f 276 277 273
o mark_dark_mask
g mark_dark_mask
f 281 282 283
f 287 289 288
f 281 283 284
f 287 290 289
f 281 284 285
f 287 291 290
f 281 285 286
f 287 292 291
f 281 287 288
f 281 288 282
f 282 288 289
f 282 289 283
f 283 289 290
f 283 290 284
f 284 290 291
f 284 291 285
f 285 291 292
f 285 292 286
f 286 292 287
f 286 287 281
o mark_dark_front_paw_-1
g mark_dark_front_paw_-1
f 293 294 295
f 298 300 299
f 293 295 296
f 298 301 300
f 293 296 297
f 298 302 301
f 293 298 299
f 293 299 294
f 294 299 300
f 294 300 295
f 295 300 301
f 295 301 296
f 296 301 302
f 296 302 297
f 297 302 298
f 297 298 293
o mark_dark_rear_paw_-1
g mark_dark_rear_paw_-1
f 303 304 305
f 308 310 309
f 303 305 306
f 308 311 310
f 303 306 307
f 308 312 311
f 303 308 309
f 303 309 304
f 304 309 310
f 304 310 305
f 305 310 311
f 305 311 306
f 306 311 312
f 306 312 307
f 307 312 308
f 307 308 303
o mark_dark_front_paw_1
g mark_dark_front_paw_1
f 313 314 315
f 318 320 319
f 313 315 316
f 318 321 320
f 313 316 317
f 318 322 321
f 313 318 319
f 313 319 314
f 314 319 320
f 314 320 315
f 315 320 321
f 315 321 316
f 316 321 322
f 316 322 317
f 317 322 318
f 317 318 313
o mark_dark_rear_paw_1
g mark_dark_rear_paw_1
f 323 324 325
f 328 330 329
f 323 325 326
f 328 331 330
f 323 326 327
f 328 332 331
f 323 328 329
f 323 329 324
f 324 329 330
f 324 330 325
f 325 330 331
f 325 331 326
f 326 331 332
f 326 332 327
f 327 332 328
f 327 328 323
